<svg xmlns="http://www.w3.org/2000/svg" viewBox="0 0 357 436.6"><defs><style>.cls-1{fill:#d1a4ce;opacity:0.28;}.cls-2{fill:#ba80ba;opacity:0.4;}.cls-3{fill:#9e419a;}.cls-4{fill:#913490;}.cls-5{fill:#a8489f;}.cls-6{fill:#fff;}.cls-7{fill:#1f6f9b;}.cls-10,.cls-8{fill:#e89260;}.cls-9{fill:#ffd8c2;}.cls-10{fill-opacity:0.5;}.cls-11{fill:#004280;}.cls-12{fill:#7a181c;}.cls-13{fill:#097e9b;}.cls-14{fill:#fbb03b;}.cls-15{fill:#bd373c;}.cls-16{fill:#ed9c6f;}.cls-17{fill:#085794;}.cls-18{fill:#e66947;}.cls-19{fill:#cf4924;}.cls-20{fill:#c0effa;}.cls-21{fill:#97d1de;}.cls-22{fill:#6297a3;}.cls-23{fill:#e3912d;}.cls-24{fill:#e97593;}.cls-25{fill:#e94e77;}.cls-26{fill:#96520d;}.cls-27{fill:#603813;}.cls-28{fill:#402206;}.cls-29{fill:#8e308c;}.cls-30{fill:#e37f87;}.cls-31{fill:#edabb1;}</style></defs><title>Wecando</title><g id="OBJECTS"><ellipse class="cls-1" cx="178.5" cy="184.31" rx="178.5" ry="170.3"/><ellipse class="cls-2" cx="182.25" cy="408.89" rx="125.92" ry="27.71"/><path class="cls-3" d="M354.14,130c14.91-4.45,23.22-20.56,57.34-17,8.13.84-18.8-21.46-26.09-24.37-6.28-2.52,3.1-9.76,7.75-12.45,18.67-10.8-38.36-12.62-43.82,4.55S345,132.65,354.14,130Z" transform="translate(-71.5 -35.49)"/><path class="cls-4" d="M354,76.74c-10,5.29-12.16,54.24-.7,53.33-4.9.32-2.56-7.73,2.06-12,5.22-4.82,8.39-4.62,11.85-9.46-4.46-14.07-8.17-24.34-10.72-33.16Q355.2,76.1,354,76.74Z" transform="translate(-71.5 -35.49)"/><path class="cls-3" d="M145.86,130c-14.91-4.45-23.22-20.56-57.34-17-8.13.84,18.8-21.46,26.09-24.37,6.28-2.52-3.1-9.76-7.75-12.45-18.67-10.8,38.36-12.62,43.82,4.55S155,132.65,145.86,130Z" transform="translate(-71.5 -35.49)"/><path class="cls-4" d="M146,76.74c10,5.29,12.16,54.24.7,53.33,4.9.32,3.79-6.51-1.34-12.13s-9.11-4.49-12.57-9.33c4.46-14.07,8.17-24.34,10.72-33.16Q144.8,76.1,146,76.74Z" transform="translate(-71.5 -35.49)"/><path class="cls-5" d="M360.85,58.25c11.62,11.15,12.13,48.23,4.69,52.28C373.63,98.91,312.3,86.1,250,85.65c-62.3.45-123.63,13.26-115.54,24.88-7.44-4-6.93-41.13,4.69-52.28C155,43.07,202.49,35.48,250,35.49S345,43.07,360.85,58.25Z" transform="translate(-71.5 -35.49)"/><path class="cls-6" d="M148.17,90.17q-4.93-12.73-10.07-25.33l3.26-1.16q2.46,6.45,4.87,12.92c1.2,3.18,2.31,6.4,3.1,8.91l.07,0c0-2.86.26-6.36.57-10.17q.6-7.45,1.28-14.91l3.27-1q2.39,6.56,4.71,13.14c1.09,3.08,2.13,6.18,2.84,9l.07,0c.11-3.17.4-6.44.72-10.09q.73-7.41,1.53-14.83c1.07-.29,2.15-.57,3.22-.84q-1.91,14.75-3.54,29.5l-3.15.9q-2.38-6.76-4.82-13.49a89.38,89.38,0,0,1-2.75-8.52l-.07,0c-.06,2.87-.23,5.73-.63,9.57q-.72,7.7-1.36,15.4Z" transform="translate(-71.5 -35.49)"/><path class="cls-6" d="M184.71,66.92c-3.13.64-6.25,1.32-9.36,2.06.34,3.34.69,6.68,1,10q5.13-1.22,10.29-2.25l.27,3q-6.67,1.35-13.29,3-1.49-13.87-3-27.75,6.61-1.64,13.27-3l.27,3q-5.05,1-10.06,2.21L175,66q4.69-1.11,9.4-2.07Z" transform="translate(-71.5 -35.49)"/><path class="cls-6" d="M215.06,74.49a14.72,14.72,0,0,1-6.25,2.08c-6.72.87-12.14-3.22-12.84-12.38-.66-8.74,4.15-15.6,11.89-16.59a11.32,11.32,0,0,1,6,.55l-.63,3a9.91,9.91,0,0,0-5.06-.57c-5.82.74-9.38,5.57-8.86,12.9.49,6.85,4.16,10.68,10,9.94a12,12,0,0,0,5-1.77Z" transform="translate(-71.5 -35.49)"/><path class="cls-6" d="M222.68,65.82c-.73,3-1.45,6-2.16,9l-3.21.31q3.45-14.43,7.22-28.8c1.29-.1,2.59-.19,3.89-.27q4.65,13.77,9,27.68c-1.11,0-2.22.08-3.32.14q-1.38-4.36-2.79-8.71C228.43,65.38,225.56,65.58,222.68,65.82Zm7.9-3.4c-.86-2.65-1.74-5.3-2.62-7.94-.61-1.8-1-3.44-1.44-5h-.08c-.31,1.69-.67,3.43-1.09,5.17q-1.07,4.16-2.12,8.31Q226.91,62.63,230.58,62.42Z" transform="translate(-71.5 -35.49)"/><path class="cls-6" d="M241,73.66q-.16-14.05-.32-28.11l3.52-.07q4.07,7.05,8,14.2a76.37,76.37,0,0,1,4.32,9.2l.07,0c-.25-3.76-.29-7.18-.25-11.56l.12-11.76,3,.08L259,73.71c-1,0-2.09-.06-3.14-.09q-3.75-7.2-7.66-14.33A100.22,100.22,0,0,1,243.56,50l-.11,0c.21,3.54.31,6.92.34,11.59l.09,12Z" transform="translate(-71.5 -35.49)"/><path class="cls-6" d="M272.9,46.67a37.24,37.24,0,0,1,6.87,0c4.63.44,7.86,2,9.9,4.6s3.16,6,2.89,10.51-1.73,8.13-4.12,10.43-6.15,3.32-10.81,2.89a46.88,46.88,0,0,1-5.62-.79Q272.46,60.49,272.9,46.67Zm2.32,25.07a19,19,0,0,0,3.13.49c6.64.62,10.47-3.21,10.9-10.78.42-6.59-2.66-11.26-9.45-11.91a16.16,16.16,0,0,0-3.78,0Q275.62,60.67,275.22,71.74Z" transform="translate(-71.5 -35.49)"/><path class="cls-6" d="M317.35,66.49C316.42,76.07,311,80.05,305,79c-6.26-1.12-10.33-7.45-9.81-15.93.54-8.88,5.82-14,12.45-12.83S318.15,58.24,317.35,66.49Zm-18.84-3c-.4,6,2,11.74,6.85,12.6S313.45,72.29,314,66c.51-5.53-1.51-11.87-6.82-12.84S298.91,57.32,298.51,63.46Z" transform="translate(-71.5 -35.49)"/><path class="cls-6" d="M333.61,56.47q-1.61,13.86-3.2,27.7l-3-.79,3.08-27.73Z" transform="translate(-71.5 -35.49)"/><path class="cls-6" d="M343.31,62.36c-2.44-.73-4.89-1.44-7.35-2.11l.36-3q9,2.48,17.91,5.48l-.44,3q-3.66-1.24-7.33-2.38l-3.3,24.52-3-.93Q341.71,74.64,343.31,62.36Z" transform="translate(-71.5 -35.49)"/><path class="cls-6" d="M352.43,88.72c.22-1.47,1.24-2.23,2.41-1.82a2.82,2.82,0,0,1,1.64,3.24c-.22,1.43-1.18,2.24-2.4,1.8A2.87,2.87,0,0,1,352.43,88.72Zm1.73-5.52q1.21-9.86,2.42-19.7c1.14.39,2.28.79,3.41,1.2L356.51,84Z" transform="translate(-71.5 -35.49)"/><path class="cls-7" d="M138.07,268.22s4.13-4.73,4.29-6.6a41.61,41.61,0,0,1,1.72-6.31s-5.1-.05-6.27,2.58S138.07,268.22,138.07,268.22Z" transform="translate(-71.5 -35.49)"/><path class="cls-8" d="M137.56,255c2,1.4,2.86,2,4.32,1.17s3.5-3.71,4.51-3.63,6.09,1.79,9.19,1.87c1.9.2-.56,2.55-2.08,3,.71.68,3.58.9,3.82,1.78s-5.1,7.16-7.8,8.54c-4.52.36-13.89-4.33-16.75-6.73C131,259.18,137.56,255,137.56,255Z" transform="translate(-71.5 -35.49)"/><path class="cls-9" d="M172.9,345c.32,10.19,1.83,81.74,1.3,83.52s-10.37,13.15-22.15,12.74c-3.16-.68,10.64-10.8,13.44-15.21.51-14.73-8.42-73.09-9.53-83.06S172.9,345,172.9,345Z" transform="translate(-71.5 -35.49)"/><path class="cls-10" d="M156,342.94c.24,2.1.82,6.36,1.59,11.91a5.37,5.37,0,0,1,3.66,2.91c4.64,8.65,6.7,18.07,7.94,27.74a190.49,190.49,0,0,1,1.93,25.69c-.08,10.38-2.59,20.06-8.41,27.41,6.57-3.37,11.17-8.93,11.53-10.13.53-1.78-1-73.33-1.3-83.52C172.9,345,154.86,333,156,342.94Z" transform="translate(-71.5 -35.49)"/><path d="M174.53,424.4c.74,2.73.73,5.41-1.45,14.89a4.27,4.27,0,0,1-2,.46c-.13-2.31.37-3.84.37-6.88-6.89,5.52-7.85,9.18-16.93,9.57-3.8.16-8.6.92-.17-5.49C153.89,441.54,163.71,437.83,174.53,424.4Z" transform="translate(-71.5 -35.49)"/><path class="cls-11" d="M146.72,196c-16.36,6.37-33.43,35.57-37.8,43.9s27.69,28.33,29.15,28.33c0-1.67-.06-6.12,1.43-8.35,1.71-2.55,2.32-3.92,4.58-4.56-1.84-1.46-18.58-11.94-18.75-14.51s32.29-30.22,32.32-34S146.72,196,146.72,196Z" transform="translate(-71.5 -35.49)"/><path class="cls-12" d="M138.83,180c4.7-4.31,11.37-5.75,20.52-2.74s15.16.65,20.39.39,12.94.92,16.07,1.44c9.15-5.88,1.05-42.09.53-45.09s-32.42-22-37.91-20.39-10.85,0-12.81,2.35.53,27.05-5,34.5S130.46,171.27,138.83,180Z" transform="translate(-71.5 -35.49)"/><path class="cls-13" d="M184.37,191.1c-3.43-2.45-17-4.51-26.76,0-8.34,6.27-5.3,7.16-4.81,7.25s33,3.53,33,3.53" transform="translate(-71.5 -35.49)"/><path class="cls-9" d="M180.35,164.44c-.91,10.45-3.4,25.91,7.06,32.05-3.92,15.29-28.53,18.56-28.53,18.56s-5.1-17.64-2.87-21.17c8.36-1.83,8-10.26,8.36-21.89C166.33,167.67,180.35,164.44,180.35,164.44Z" transform="translate(-71.5 -35.49)"/><path class="cls-10" d="M162.57,188.44c1.61-3.93,1.57-9.64,1.8-16.45,2-4.32,16-7.55,16-7.55-.42,4.75-1.15,10.54-.85,16A36.84,36.84,0,0,1,162.57,188.44Z" transform="translate(-71.5 -35.49)"/><path class="cls-9" d="M170.69,342.66c0,16.74,3.69,82.27,2.57,88.32s-9.63,17.83-7.71,20.39,13.28-9.84,15.41-17,7.17-86.28,7.17-86.28Z" transform="translate(-71.5 -35.49)"/><path class="cls-14" d="M147.51,242.24c.52,6.92-5.23,70.45,3.79,105.48,8,8.62,37,5.62,41.3-1.05.66-22.35-1.7-72.15-13.59-102.08C167,246.42,152.48,245,147.51,242.24Z" transform="translate(-71.5 -35.49)"/><path class="cls-14" d="M185.17,197.23c-4.31,6.67-15.44,42.52-13,48.27-16.6.66-24.83-2.35-24.83-2.35-4.44-16.2-6.8-39.18,10.33-50.29-1.31,7.06.39,14.35,2.35,15.53C165.81,207,183.34,195.66,185.17,197.23Z" transform="translate(-71.5 -35.49)"/><path class="cls-9" d="M146.73,130c1,12.35.78,19.8-1.38,29.41-1,4.31-.39,10.58,14.71,19.41,2.25,1.08,25.19-4.32,28.23-23.14,3.13-19.4-3.14-34.89-14.9-37.25S147.71,117.48,146.73,130Z" transform="translate(-71.5 -35.49)"/><path class="cls-15" d="M188.07,155.76c-.52,7.84-12.52,26.48-1,34.07.78-4.71,3.13-9.28,8.62-7.06s11.77-.26,13.6-3.27c8.1-14.12,2.74-24.05-2.23-30.58s-6.66-17.13-6.66-17.13L189.93,144" transform="translate(-71.5 -35.49)"/><path class="cls-9" d="M189.07,148c3.34-5.13,9.81-1.31,7.72,4.18-2.17,5.69-7.52,6.37-10.36,3.43A21.21,21.21,0,0,1,189.07,148Z" transform="translate(-71.5 -35.49)"/><path d="M170.15,152.09c-.26-.05-.46-1,0-2.62a5.53,5.53,0,0,1,1.59-2.56,6.08,6.08,0,0,1,3.43-1.48,16.2,16.2,0,0,1,3.36,0,23.94,23.94,0,0,0,2.44.13c1.26,0,1.85-.62,2.14-.45.12.07.14.37-.13.8a3.12,3.12,0,0,1-1.72,1.18c-1.66.53-3.82.26-5.81.5a5.07,5.07,0,0,0-2.42.86,5.42,5.42,0,0,0-1.46,1.62C170.85,151.26,170.47,152.15,170.15,152.09Z" transform="translate(-71.5 -35.49)"/><path d="M178.38,146.36a4.38,4.38,0,0,1,1.19,3.08c0,2.22-1.45,4-3.24,4s-3.23-1.8-3.23-4a4.45,4.45,0,0,1,1.09-3C175.59,146.38,177,146.36,178.38,146.36Z" transform="translate(-71.5 -35.49)"/><path class="cls-16" d="M162.48,160.29c0,.12-1,0-2.43-.62a4.35,4.35,0,0,1-1.12-.76,1.78,1.78,0,0,1-.49-.74,1.49,1.49,0,0,1,0-1,4,4,0,0,1,1.13-1.39,2.78,2.78,0,0,0,1-1.06,6.11,6.11,0,0,0,.34-2.89c0-1-.17-1.84-.26-2.58-.18-1.48-.27-2.41-.11-2.45s.49.84.88,2.31a19.52,19.52,0,0,1,.5,2.64,6.44,6.44,0,0,1-.36,3.45,3.72,3.72,0,0,1-1.25,1.41,3.31,3.31,0,0,0-.89.94c-.29.47.45,1.12,1,1.48C161.66,159.74,162.54,160.13,162.48,160.29Z" transform="translate(-71.5 -35.49)"/><path d="M156.66,152a2.43,2.43,0,0,1-2,1.64c-1.4,0-2.54-1.8-2.54-4a5,5,0,0,1,1.07-3.26C155.27,147.59,156.19,149.7,156.66,152Z" transform="translate(-71.5 -35.49)"/><path class="cls-12" d="M155.25,139.24c-.13.1-.5-.2-1.18-.49a6.66,6.66,0,0,0-2.76-.51,5.19,5.19,0,0,0-2.64.79c-.59.4-.91.79-1.06.7s0-.61.55-1.28a4.39,4.39,0,0,1,3.11-1.3,5.06,5.06,0,0,1,3.2.94C155.17,138.62,155.37,139.17,155.25,139.24Z" transform="translate(-71.5 -35.49)"/><path d="M156.68,151.94c-.32,0-.65-.66-1.11-1.69s-1.11-2.41-2.18-2.75-2.94.05-4.41-.49a2.08,2.08,0,0,1-1.3-1.26c-.12-.39,0-.63.09-.69.29-.14.79.49,1.58.44a12.66,12.66,0,0,0,1.81-.22,6.21,6.21,0,0,1,3,.15,4.17,4.17,0,0,1,2.37,2.2,6.53,6.53,0,0,1,.6,2.24C157.18,151.14,157,151.9,156.68,151.94Z" transform="translate(-71.5 -35.49)"/><path class="cls-11" d="M178.19,340.79c8-.2,27.16-.88,31.37-10.88-5.19-20.69-11.17-53.33-24.7-77.45-1.67-5,7.94-17.44,11.47-28,3.43-11.67,5.82-23.62,5.55-24-1.43-1.37-14.57-4.21-14.57-4.21s-15.39,9.8-17.15,23.92.19,40.48,2.25,59S173.88,334.12,178.19,340.79Z" transform="translate(-71.5 -35.49)"/><path class="cls-11" d="M148.39,240.9c4.29,14.33-3.23,77.93,2.85,97.93-4.91.78-12.06-5.1-13-7.06s3.92-74.5,5.88-86.46-7.55-19.7-2.06-40.49c.9-.73,4.7-8.83,4.7-8.83l9.29-2.11-10,9.87S142.9,222.57,148.39,240.9Z" transform="translate(-71.5 -35.49)"/><path class="cls-17" d="M201.08,199.63c.85,1,34.36,37.16,33.14,49.26-.73,7.3-13.82,1.93-14.42-2.13s-17.49-20.08-18.68-21.38C190.07,213.39,200.22,198.67,201.08,199.63Z" transform="translate(-71.5 -35.49)"/><path d="M181.63,431c-9.41,16.38-15.92,19.53-13.31,11.08,0,0-6.14,10.33-3,10.49,2.19.11,8.43-4.38,12.86-11.57l-.06,2.73,1.77-1.63s.71-3.9,1.11-6.86A9.51,9.51,0,0,0,181.63,431Z" transform="translate(-71.5 -35.49)"/><path class="cls-18" d="M170.46,164.4c-6.8,6.41-10,5.49-11.05,4.71A31.29,31.29,0,0,1,156,164.8C158.69,166.23,167.19,165.84,170.46,164.4Z" transform="translate(-71.5 -35.49)"/><path class="cls-19" d="M170.85,164.08c-6.34,2.15-12.88-3-15.23.78C160.33,166.69,166.08,167,170.85,164.08Z" transform="translate(-71.5 -35.49)"/><path class="cls-16" d="M168.82,163.36c.1-.29,1-.23,1.93.28s1.47,1.26,1.28,1.48-1-.06-1.8-.51S168.73,163.65,168.82,163.36Z" transform="translate(-71.5 -35.49)"/><path class="cls-9" d="M201.34,261.32c-2.15,1.17-3.06,1.7-4.42.69s-3.06-4.08-4.08-4.12-6.25,1.1-9.33.83c-1.91,0,.26,2.6,1.72,3.21-.77.6-3.65.5-4,1.35s4.26,7.68,6.79,9.36c4.46.86,14.3-2.75,17.41-4.82C207.42,266.21,201.34,261.32,201.34,261.32Z" transform="translate(-71.5 -35.49)"/><path class="cls-17" d="M200.7,260.17c-1,3,1.55,7.62,3.91,10.22,6.56,1.26,29-14.26,30.74-22-1.65-7.51-9.95-5.88-12.08-4.67S209.1,257.91,200.7,260.17Z" transform="translate(-71.5 -35.49)"/><path class="cls-15" d="M156.86,119.9c1.7,8.89,3,17.78,12.42,20.65s18.69-.13,18.3,2-2,9.49,0,10c2.74-3.27,2.78-4.11,4.13-5.57,2.24-2.42,9.93-2.1,9.8-8.76s-2.74-20.13-8.1-21.18-11.5-1.69-16.6-7.18-19.6-5.23-23.92,6.53C154.77,115.32,156.73,118.59,156.86,119.9Z" transform="translate(-71.5 -35.49)"/><path class="cls-15" d="M159.74,119c-5.88-10.19-24.18-4.44-23,4.58s8.1,17.12.52,25.75-12.94,21.17-6.67,28.88,4.71,8.11,3.53,9.54c8.5-3.13,8.63-7.18,3.66-17.9s9.41-21.93,9.28-33.85C146.93,123.43,151.24,119.64,159.74,119Z" transform="translate(-71.5 -35.49)"/><path class="cls-12" d="M168.62,138.85c-.09-.09.34-.71,1.4-1.26a8.36,8.36,0,0,1,4.45-.75c3.55.29,6,1.9,5.85,2.14s-2.67-.79-5.93-1a11,11,0,0,0-4.08.38C169.31,138.62,168.73,139,168.62,138.85Z" transform="translate(-71.5 -35.49)"/><path class="cls-12" d="M145,127.74c1.25,5.7,1.64,11,.57,15.64a20.19,20.19,0,0,0,1.52-7.4c-.11-10.53,2.91-14.89,8.9-16.41C149.57,118.15,143.26,119.9,145,127.74Z" transform="translate(-71.5 -35.49)"/><path class="cls-17" d="M184.2,191c3.8,3,7.77,4.44,7.73,4.86-.55,6.82-6.94,13.44-7.73,14.09a97.46,97.46,0,0,0-9.54,2.75c5.75,3.46,4.58,3.79,4.58,3.79-5.49,4.7-10.07,19.08-9.41,32-3.4-21.69-6.6-28.56,13.33-53.06A5.23,5.23,0,0,0,184.2,191Z" transform="translate(-71.5 -35.49)"/><path class="cls-17" d="M159.74,190.68c-7.32,7.19-18.2,17.52-11.4,51.37-7.19-12.42-9-30.06-9-30.06s3.53-3.79,4.05-3.79c-2.61-2-4.18-2.75-3.79-3.66S153.32,190,159.74,190.68Z" transform="translate(-71.5 -35.49)"/><path class="cls-9" d="M389,156.43c-.27-1.82-.07-6.32-1.3-7.7s-4,.22-5.51-.78a5.89,5.89,0,0,0-3.8-.59c-2.32.24-2.9.73-6.38.5-2.25-.15-3.46,5-3.79,7.18l-.28.17a3.09,3.09,0,0,0-1.19,3.76,9.38,9.38,0,0,0,1.87,2.28c1.5,1.05,3.81,4.2,6.17,4.05s2.34,3.71,3.06,6.77c.58,2.44.43.62,2.49,2.05,2.83,2,6.12,1.23,6.52-2.16.5-4.38-1.34-7.68,1-12.06C388.39,158.8,389.15,157.66,389,156.43Z" transform="translate(-71.5 -35.49)"/><path class="cls-20" d="M385.86,209.08c-2.8-12.22-7.21-27.1-10-39.32a12.58,12.58,0,0,0,11.47-1.18c16.76,36.51,18.12,56.74,12.41,58.56s-18.39-.08-26.46-3.79S357.82,217,349,216.75c-2.22-.07-4.55-3.18-6.54-4.17-5.11-2.55,0-16.75,5.46-15.65C361.52,199.7,378.11,208.62,385.86,209.08Z" transform="translate(-71.5 -35.49)"/><path class="cls-21" d="M314.91,190.57c1.47-2.24,21.76-4.74,23.94,2.11-.71,2.94-23.17,1.86-23.17,1.86S314.15,193.26,314.91,190.57Z" transform="translate(-71.5 -35.49)"/><path class="cls-9" d="M318.27,166.09c.9,10.24,3.33,25.37-6.91,31.39,3.84,15,34.17,28.89,34.17,28.89s-1.24-28-3.42-31.45c-8.19-1.79-7.81-10-8.19-21.44C332,169.26,318.27,166.09,318.27,166.09Z" transform="translate(-71.5 -35.49)"/><path class="cls-10" d="M335.68,189.6c-1.57-3.85-1.54-9.45-1.76-16.12-1.92-4.22-15.65-7.39-15.65-7.39.41,4.66,1.13,10.33.84,15.69A36,36,0,0,0,335.68,189.6Z" transform="translate(-71.5 -35.49)"/><path class="cls-21" d="M354.75,209.38c-1.55-5.18-6.26-12.31-6.26-12.31-3.35-1.52-7.9-3.43-10.35-3.43,1.44,2,2.29,7.47,1.67,9.09-.9,2.3.51,2.24-.42,4.06-1.43,2.81-.77,5.18,1.63,7s2.78,4.6,1.54,8.83a55.68,55.68,0,0,1-3.65-8.26c-.77-2.88-4.9-1.53-7.2-2.11s.67-3.93,1.44-5.18-.57-3.75-3.07-4.61c0,0-2.19,1.14-4.34,2.53a4.22,4.22,0,0,0-.89-.9c-5.88-4.09-12.34-9.4-12.34-9.4-7,.82-13.39,4.36-15.32,6.62-3.39,4,12.8,48.1,18,48.11s7.4-.19,9.68,3.95c.81,1.47,1.8.09,2.75-2.29,5,.83,14.11,3.74,20.72.72C352.44,248.16,358.26,221.12,354.75,209.38Z" transform="translate(-71.5 -35.49)"/><path class="cls-9" d="M326.86,342.07c-2.24,16.23-14.53,79.31-14.25,85.33s7,18.58,4.77,20.8-11.58-11.32-12.69-18.51S309.22,345,309.22,345Z" transform="translate(-71.5 -35.49)"/><path class="cls-9" d="M339.42,343.25c0,10,1,86.7,1.54,88.43s10.36,5.89,21.88,5.12c3.07-.77-10.3-7.42-13.18-11.64-1-14.4,5.5-74.62,6.27-84.41S339.42,343.25,339.42,343.25Z" transform="translate(-71.5 -35.49)"/><path class="cls-4" d="M340.64,429.06c10,5.05,22.27,7.74,18.55,3.65,11.14,6-1.15,7.2-18.11.25C339.93,432.19,340.64,429.06,340.64,429.06Z" transform="translate(-71.5 -35.49)"/><path class="cls-22" d="M341.92,251.62c-.07,0-.19-.42-.2-1.2s.06-1.88.19-3.23c.28-2.72.84-6.44,1.54-10.53.17-1,.34-2,.49-3a20.15,20.15,0,0,0,.21-2.74,24.25,24.25,0,0,0-.44-4.65c-.52-2.62-1.18-4.18-1-4.25s1,1.41,1.76,4.08a20.36,20.36,0,0,1,.69,4.82,19,19,0,0,1-.15,2.88c-.13,1-.31,2-.48,3-.72,4.08-1.37,7.77-1.84,10.45-.23,1.33-.41,2.41-.53,3.16S342,251.6,341.92,251.62Z" transform="translate(-71.5 -35.49)"/><path class="cls-15" d="M304.36,401.1c4.09,2.17,13.18,1.4,16,.25,2.18-12.16,14.85-102.64,14.85-102.64s3.33,98.16,3.45,100.21c5.38,3.07,12.67.38,14-1.15,1.41-10.5,4.21-66.42,4.87-77.81,2.38-41.15-7.17-70.39-7.17-70.39a101.82,101.82,0,0,1-29.95-.13C312,261.6,304.23,393.42,304.36,401.1Z" transform="translate(-71.5 -35.49)"/><path class="cls-14" d="M306,157.55c1.34,5.57,5.56,7.39,8.25,7.58a29.06,29.06,0,0,0-3.17-7.77Z" transform="translate(-71.5 -35.49)"/><path class="cls-9" d="M351.2,132.4c-1,12.1-.77,19.39,1.34,28.8,1,4.22.38,10.36-14.4,19-2.21,1.06-24.67-4.22-27.64-22.65-3.07-19,3.07-34.17,14.59-36.47S350.24,120.12,351.2,132.4Z" transform="translate(-71.5 -35.49)"/><path class="cls-9" d="M309.73,150c-3.26-5-9.6-1.28-7.55,4.09,2.12,5.57,7.36,6.24,10.14,3.36A20.76,20.76,0,0,0,309.73,150Z" transform="translate(-71.5 -35.49)"/><path d="M328.25,154c-.14,0-.33-.17-.55-.52s-.5-.84-.86-1.36A3.1,3.1,0,0,0,325.3,151a6.24,6.24,0,0,0-2.6,0c-1,.16-2.07.4-3.1.51a7,7,0,0,1-1.52,0,3.48,3.48,0,0,1-1.45-.35,3,3,0,0,1-1.41-1.49c-.18-.43-.17-.7-.05-.78s.36,0,.7.25a3.64,3.64,0,0,0,1.3.6,6.11,6.11,0,0,0,2.12-.23c.89-.2,1.91-.49,3.09-.67a6.59,6.59,0,0,1,3.62.28,4.18,4.18,0,0,1,2.18,2.25,4.74,4.74,0,0,1,.33,1.89C328.49,153.73,328.4,154,328.25,154Z" transform="translate(-71.5 -35.49)"/><path class="cls-16" d="M335.77,162c-.06-.16.8-.53,2-1.27.57-.36,1.3-1,1-1.44a3.19,3.19,0,0,0-.87-.93,3.82,3.82,0,0,1-1.23-1.38,6.38,6.38,0,0,1-.35-3.38,19.39,19.39,0,0,1,.49-2.59c.38-1.43.72-2.29.86-2.25s.07.94-.11,2.4c-.09.72-.2,1.58-.25,2.52a6,6,0,0,0,.33,2.83c.29.8,1.52,1.19,2,2.4a1.49,1.49,0,0,1,0,1,1.9,1.9,0,0,1-.48.73,4.23,4.23,0,0,1-1.11.73C336.74,162.05,335.82,162.15,335.77,162Z" transform="translate(-71.5 -35.49)"/><path d="M341.45,153.85c-.26-.1-.26-.88.14-2a7.91,7.91,0,0,1,1-2,6.08,6.08,0,0,1,2.06-2,3.89,3.89,0,0,1,1.65-.51,3,3,0,0,1,1.69.37,2.92,2.92,0,0,1,.37.24c.1.07.27.25.3.27s0,0,0,.07-.1.18-.1.26,0,0,0-.08,0-.06-.05-.13,0,0,0,0a.43.43,0,0,0,.21-.1c.34-.24.67-.61.92-.82s.45-.33.59-.27.19.28.16.64a3.23,3.23,0,0,1-.55,1.48,2,2,0,0,1-.48.5,1.63,1.63,0,0,1-1,.27,2,2,0,0,1-1-.45c-.11-.09-.07,0-.12-.07s-.07,0-.12-.05a1.8,1.8,0,0,0-1.42.24,6.51,6.51,0,0,0-1.53,1.36c-.46.51-.85,1-1.19,1.48C342.24,153.41,341.74,154,341.45,153.85Z" transform="translate(-71.5 -35.49)"/><path class="cls-20" d="M315.49,190.09c-1.44,3.17,6.33,8.64,15.36,12.67a56.44,56.44,0,0,0-4.61,7.58c-8.06-1.82-14.59-11.71-13.73-15.64C313.57,190.57,315.49,190.09,315.49,190.09Z" transform="translate(-71.5 -35.49)"/><path class="cls-4" d="M304.49,426.28c6.95,17.15,12.84,21.07,11.44,12.52,0,0,4.58,10.84,1.51,10.58-2.14-.18-7.59-5.37-10.94-12.94a12.92,12.92,0,0,1-2-6A9.37,9.37,0,0,1,304.49,426.28Z" transform="translate(-71.5 -35.49)"/><path class="cls-23" d="M321.25,122.93c1.15-14.78-15.07-17.85-24.09-6.53s-.77,32.83,17.18,20.55C320.29,129.75,321.25,122.93,321.25,122.93Z" transform="translate(-71.5 -35.49)"/><path class="cls-14" d="M304.36,148c-2.12-6.4,1.34-20.41,2.87-23.42s30.78-11.1,39.93-3.74,6,20.35,5.38,21.5c-4.48-3.78-25.05,4.89-37.05,1.73a11.63,11.63,0,0,1-3.84,4.7c1.28,5.18.38,6.27-.38,5.31S308.64,146.74,304.36,148Z" transform="translate(-71.5 -35.49)"/><path class="cls-24" d="M328.58,166.06c6.65,6.27,9.79,5.38,10.81,4.61a30.3,30.3,0,0,0,3.39-4.23C340.09,167.85,331.78,167.47,328.58,166.06Z" transform="translate(-71.5 -35.49)"/><path class="cls-25" d="M328.19,165.74c6.21,2.11,12.61-2.94,14.91.77C338.49,168.3,332.86,168.56,328.19,165.74Z" transform="translate(-71.5 -35.49)"/><path class="cls-16" d="M330.18,165c.09.28-.55.76-1.38,1.22s-1.57.74-1.76.51.33-1,1.25-1.46S330.08,164.75,330.18,165Z" transform="translate(-71.5 -35.49)"/><path class="cls-23" d="M317.41,144.4c-.05-.06.17-.34.6-.79a10.65,10.65,0,0,0,.76-.81l.91-1.14a15.83,15.83,0,0,0,2.83-7.82,15.52,15.52,0,0,0-1.43-8.17c-1-1.92-2.15-2.71-2-2.87s1.44.51,2.7,2.49a14.42,14.42,0,0,1,1.84,8.64,14.63,14.63,0,0,1-3.3,8.2l-1.09,1.09a6,6,0,0,1-.91.71C317.76,144.29,317.45,144.46,317.41,144.4Z" transform="translate(-71.5 -35.49)"/><path class="cls-23" d="M331.9,140.27c0-.05.15-.38.55-.94A24.1,24.1,0,0,0,334.1,137a15.34,15.34,0,0,0,2.68-8.74,12.38,12.38,0,0,0-1.32-4.84,11.06,11.06,0,0,0-2.51-3.27l-.65-.54-.63-.4a6.31,6.31,0,0,0-1.07-.54c-.62-.2-1-.27-1-.36s.39-.14,1.11,0a5.17,5.17,0,0,1,1.24.4l.73.37.75.52a10.88,10.88,0,0,1,2.9,3.39,12.5,12.5,0,0,1,1.53,5.26,13.18,13.18,0,0,1-.23,2.84,9.07,9.07,0,0,1-.29,1.32c-.15.41-.29.82-.43,1.22a15.46,15.46,0,0,1-2.18,3.84,13.58,13.58,0,0,1-2,2.2C332.26,140.09,332,140.32,331.9,140.27Z" transform="translate(-71.5 -35.49)"/><path class="cls-23" d="M320.86,144.59c-.09-.13.6-.75,1.53-1.89a31.76,31.76,0,0,0,3.24-4.78,32.5,32.5,0,0,0,2.41-5.24c.49-1.39.63-2.3.79-2.29s.26,1-.06,2.5A22,22,0,0,1,323,143.22C321.82,144.28,320.94,144.7,320.86,144.59Z" transform="translate(-71.5 -35.49)"/><path class="cls-23" d="M310.5,149.1c0-.06.21-.3.67-.68.22-.2.54-.38.84-.68l1-1a13.2,13.2,0,0,0,3.17-7.33,20.84,20.84,0,0,0,.09-4.51,33.62,33.62,0,0,0-.51-3.69c-.41-2.09-.82-3.37-.66-3.43s.78,1.14,1.4,3.25a23,23,0,0,1,.75,3.77,18.85,18.85,0,0,1,0,4.75,12.57,12.57,0,0,1-3.7,7.73l-1.18.92a6.55,6.55,0,0,1-1,.56C310.85,149.05,310.53,149.17,310.5,149.1Z" transform="translate(-71.5 -35.49)"/><path class="cls-23" d="M346.4,140.85c-.06,0,.05-.36.31-.89a22.15,22.15,0,0,0,1-2.27,16.33,16.33,0,0,0,.48-7.94,27.29,27.29,0,0,0-2.67-7.65c-1-1.86-1.72-2.94-1.59-3s1.08.84,2.25,2.66a21.91,21.91,0,0,1,3.07,7.85,14.81,14.81,0,0,1-.83,8.4,10.93,10.93,0,0,1-1.33,2.21C346.69,140.65,346.46,140.89,346.4,140.85Z" transform="translate(-71.5 -35.49)"/><path class="cls-23" d="M342.75,142.19c-.13-.12.53-.95,1.25-2.44a15.77,15.77,0,0,0,1-2.73,21.12,21.12,0,0,0,.55-3.52c.29-5.11-1.22-9.16-.88-9.26.12,0,.65.9,1.16,2.57a20.08,20.08,0,0,1,.79,6.75,16.83,16.83,0,0,1-.67,3.73,12.18,12.18,0,0,1-1.28,2.82C343.72,141.61,342.83,142.28,342.75,142.19Z" transform="translate(-71.5 -35.49)"/><path class="cls-26" d="M329.83,140.21c-.09.15-.7-.13-1.72-.29a10.66,10.66,0,0,0-4,.21c-3.12.71-5.43,2.11-5.6,1.85s2-2.12,5.37-2.9a8.29,8.29,0,0,1,4.42.1C329.4,139.57,329.9,140.11,329.83,140.21Z" transform="translate(-71.5 -35.49)"/><path class="cls-26" d="M351.18,141.35c-.16.06-.41-.35-.94-.82a4.87,4.87,0,0,0-2.44-1.12,6.6,6.6,0,0,0-2.76.12c-.69.18-1.09.43-1.21.31s.16-.59.92-1a5,5,0,0,1,3.23-.48,4.32,4.32,0,0,1,2.84,1.68C351.3,140.76,351.3,141.32,351.18,141.35Z" transform="translate(-71.5 -35.49)"/><path class="cls-20" d="M339.49,203.62c.76-1.92,2.68-1.63,5.66,3,2-5.57-4.13-15.23-9.5-17C335.65,191.08,341.21,196.52,339.49,203.62Z" transform="translate(-71.5 -35.49)"/><path class="cls-22" d="M342.37,233.41a1.08,1.08,0,1,1-1.06-1.31A1.2,1.2,0,0,1,342.37,233.41Z" transform="translate(-71.5 -35.49)"/><path class="cls-22" d="M340.83,244.55a1.08,1.08,0,1,1-1.06-1.32A1.2,1.2,0,0,1,340.83,244.55Z" transform="translate(-71.5 -35.49)"/><path class="cls-16" d="M369.19,154.82a27.47,27.47,0,0,0,4.24-.13c.71-.06,1.42-.13,2.12-.23a7.71,7.71,0,0,0,2-.48.78.78,0,0,1,.82.16,1.13,1.13,0,0,1,.26.7,2.88,2.88,0,0,1-.21,1.18,3.23,3.23,0,0,1-1.51,1.81,18.11,18.11,0,0,1-4.32.91h0v-.81a20.06,20.06,0,0,1,4.32,1.2,9.59,9.59,0,0,1,2,1.08,4.21,4.21,0,0,1,1.48,1.75.19.19,0,0,1-.1.24.2.2,0,0,1-.24-.1,3.83,3.83,0,0,0-1.41-1.5,9.51,9.51,0,0,0-1.93-.92,19,19,0,0,0-4.21-.94.42.42,0,0,1-.36-.46.4.4,0,0,1,.37-.35h0a17.84,17.84,0,0,0,4.09-.74,2.59,2.59,0,0,0,1.21-1.4c.26-.55.25-1.46-.07-1.22a7.64,7.64,0,0,1-2.15.45c-.72.09-1.44.15-2.15.19a27.44,27.44,0,0,1-4.35,0,.2.2,0,0,1-.18-.22.22.22,0,0,1,.22-.19Z" transform="translate(-71.5 -35.49)"/><path class="cls-16" d="M382.31,150c-.54,1.35-1.09,2.69-1.58,4.05a19.29,19.29,0,0,0-.65,2,4,4,0,0,0-.13,1,2.5,2.5,0,0,0,.33.89c.65,1.14,1.94,2.22,3.19,1.56a6.33,6.33,0,0,0,1.75-1.11,3.69,3.69,0,0,0,1.2-1.66h0a.14.14,0,0,1,.18-.1.14.14,0,0,1,.1.17,4,4,0,0,1-1.17,1.92,6.25,6.25,0,0,1-1.85,1.28,2.62,2.62,0,0,1-1.17.28,2.52,2.52,0,0,1-1.16-.37,4.63,4.63,0,0,1-1.6-1.66,2.92,2.92,0,0,1-.41-1.14,4.23,4.23,0,0,1,.17-1.17,19.77,19.77,0,0,1,.72-2.09,43.19,43.19,0,0,1,1.89-3.94.11.11,0,0,1,.14,0A.11.11,0,0,1,382.31,150Z" transform="translate(-71.5 -35.49)"/><path class="cls-16" d="M378.12,149.44a16.81,16.81,0,0,0-.88,2.47c-.25.85-.48,1.7-.69,2.56a.43.43,0,0,1-.5.3.42.42,0,0,1-.3-.5l0,0c.31-.84.63-1.67,1-2.49a16.38,16.38,0,0,1,1.18-2.42.11.11,0,0,1,.2.11Z" transform="translate(-71.5 -35.49)"/><path class="cls-16" d="M374.09,149.42c-.29.87-.51,1.77-.72,2.67-.11.44-.21.89-.29,1.34a8,8,0,0,0-.17,1.29v0a.4.4,0,0,1-.4.41.42.42,0,0,1-.42-.41v0a8,8,0,0,1,.33-1.44c.14-.45.29-.89.44-1.33.31-.88.63-1.75,1-2.6a.11.11,0,0,1,.14-.06A.11.11,0,0,1,374.09,149.42Z" transform="translate(-71.5 -35.49)"/><path class="cls-16" d="M385.83,151.86a6.36,6.36,0,0,1-.21,1.47,13.51,13.51,0,0,1-.43,1.41,9,9,0,0,1-.61,1.35,4.23,4.23,0,0,1-1,1.24.41.41,0,0,1-.52-.64l0,0h0a5.47,5.47,0,0,0,1.56-2.15,10,10,0,0,0,.53-1.31,6.1,6.1,0,0,0,.33-1.34v0a.15.15,0,0,1,.15-.14A.15.15,0,0,1,385.83,151.86Z" transform="translate(-71.5 -35.49)"/><path class="cls-9" d="M298.1,263.32c2.3.85,3.27,1.25,4.48.06s2.46-4.47,3.46-4.65,6.34.22,9.36-.47c1.89-.28.1,2.61-1.26,3.41.85.49,3.69,0,4.14.78s-3.15,8.2-5.42,10.22c-4.29,1.47-14.54-.74-17.91-2.35C292.77,269,298.1,263.32,298.1,263.32Z" transform="translate(-71.5 -35.49)"/><path class="cls-20" d="M279.37,247.48c.73-4.15,17.48-20,18.67-21.33,11-12,.9-26.71,0-25.75s-28.49,30.82-32.65,45.37a7.54,7.54,0,0,0-1.62,3.41c1.73,7.72,24.18,23.24,30.74,22,2.36-2.6,4.9-7.19,3.91-10.22C292.26,259.27,284.09,251.78,279.37,247.48Z" transform="translate(-71.5 -35.49)"/><path class="cls-9" d="M302.68,306.9c-.07-1.7-.21-4.39-.5-7.77,0,0,0-.08,0-.11h0c-.32-3.7-.82-8.22-1.58-13.15-2.36,0-8.79.61-8.79.61,1.4,4.8,3.05,7.52,1,9.25-.82.7-1.22,2.27-1.4,4.14a13.41,13.41,0,0,0-.12,2.24c0,2.26.14,4.61.25,6.23,0,0,0,0,0,.05,0,2.1-.08,4-.69,4.94-1.6,2.55-3.9,8.51-2.64,8.62s1.48-2.29,4.56-7c0,1-1.09,2.67-2.67,6.73-.54,5.81,2,4.51,3.95,2.33,0,0-.6,2.28.41,2.52s6.8-9.38,8-11.54C303.2,313.72,303,310.5,302.68,306.9Z" transform="translate(-71.5 -35.49)"/><path class="cls-16" d="M298.79,304.24c.15.08-.39,1.25-.75,3.35a30.46,30.46,0,0,1-.85,3.79,10,10,0,0,1-1,2.19,5.35,5.35,0,0,1-.84,1.06,2.15,2.15,0,0,1-.7.48,1.18,1.18,0,0,1-1.16-.13,1.74,1.74,0,0,1-.37-.57A2.13,2.13,0,0,1,293,314a6,6,0,0,1-.09-.83,12.17,12.17,0,0,1,.05-1.6,30.93,30.93,0,0,1,1.18-5.83,18.6,18.6,0,0,0,.06-4.64,5.67,5.67,0,0,1,.68-3.29c.45-.69.86-.9.89-.87s-.2.41-.47,1.08a6.06,6.06,0,0,0-.26,3,16.37,16.37,0,0,1,.17,4.92,36.46,36.46,0,0,0-1.07,5.7,14.54,14.54,0,0,0-.05,1.46q0,.35.06.66c0,.08,0,.2.07.25s0,0,0,0h0a1.54,1.54,0,0,0,.33-.24,4.46,4.46,0,0,0,.7-.84,9.84,9.84,0,0,0,1-1.93c.51-1.28.73-2.58,1.07-3.62C297.89,305.29,298.69,304.17,298.79,304.24Z" transform="translate(-71.5 -35.49)"/><path class="cls-27" d="M222,139.58c2.06,14.66-29.85,34.38-5.35,56.32,17.93,17,53.07,5.12,58.54,2.21s12.94-12.64,3.86-24.37-3.44-21.14-6.37-28.3S225.61,129.21,222,139.58Z" transform="translate(-71.5 -35.49)"/><path class="cls-28" d="M272.64,145.44c-2-4.81-22.49-10.48-36.87-10.55-3.28,1.31-5.45,3.48-5.73,6.68,2.38,16.64-15.58,43.49-1.11,56.4,5.86,3.32,14.47,5.35,23.3,6.29,11-1.36,20.32-4.77,22.92-6.15,5.46-2.91,12.94-12.64,3.86-24.37S275.57,152.6,272.64,145.44Z" transform="translate(-71.5 -35.49)"/><path class="cls-29" d="M229.94,184.51c4-6.14,20.1-12.46,33-3.1,9.11,6.64,5.82,5.84,5.29,6s-35.65,4.37-35.65,4.37Z" transform="translate(-71.5 -35.49)"/><path class="cls-9" d="M237.93,151.17c1.16,11.28,4.1,28-7.1,34.76,4.5,16.47,31.15,19.59,31.15,19.59s5.21-19.16,2.75-22.94c-9.07-1.84-8.79-11-9.41-23.52C253.13,154.43,237.93,151.17,237.93,151.17Z" transform="translate(-71.5 -35.49)"/><path class="cls-10" d="M257.55,176.82c-1.81-4.23-1.86-10.4-2.23-17.76-2.19-4.63-17.39-7.89-17.39-7.89.53,5.13,1.42,11.38,1.19,17.3A39.81,39.81,0,0,0,257.55,176.82Z" transform="translate(-71.5 -35.49)"/><path class="cls-9" d="M228.79,344.09c-.28,18.1,2.51,89,1.2,95.51s-10.73,19.1-8.71,21.9,14.54-10.4,17-18.07,9.3-93.12,9.3-93.12Z" transform="translate(-71.5 -35.49)"/><path class="cls-9" d="M253.55,346.25c.17,11,2.22,88.36,2.88,90.26S268.3,450.17,281,449.13c3.37-.9-12.05-11.12-15.3-15.73-1.3-15.88,5.35-79.36,6-90.18S253.55,346.25,253.55,346.25Z" transform="translate(-71.5 -35.49)"/><path class="cls-9" d="M273.7,113.41c-.86,13.37-.52,21.42,2,31.77,1.13,4.64.6,11.44-15.57,21.22-2.42,1.21-27.3-4.24-30.9-24.53C225.49,121,232,104.1,244.68,101.36S272.43,99.87,273.7,113.41Z" transform="translate(-71.5 -35.49)"/><path class="cls-9" d="M228.22,133.55c-3.69-5.49-10.62-1.25-8.26,4.65,2.43,6.1,8.23,6.76,11.25,3.53A23,23,0,0,0,228.22,133.55Z" transform="translate(-71.5 -35.49)"/><path class="cls-27" d="M241.21,105.08c1.11,8-5.47,23.26-10.81,25.75,2.3,4.73.22,7.2-.63,7.21s-3.12-5.32-3.12-5.32c-3.42-2.35-5.5-.74-5.5-.74-4.39-18.87-1.1-33.35,16.47-30.51,3.37-10.52,31.83-6.86,39.11,6.88s-2.92,26.4-2.92,26.4a55.94,55.94,0,0,1-.53-11.51C263.82,123.67,248.9,118.11,241.21,105.08Z" transform="translate(-71.5 -35.49)"/><path d="M250.39,139.93c-.32.15-.94-.68-2-1.72a5.74,5.74,0,0,0-2-1.32,5.44,5.44,0,0,0-2.76-.26c-2.15.28-4.35,1.14-6.23,1a3.29,3.29,0,0,1-2.11-.78c-.4-.37-.45-.7-.36-.8s.4-.06.8,0a4.45,4.45,0,0,0,1.58-.08,24.13,24.13,0,0,0,2.51-.79,18.49,18.49,0,0,1,3.52-.91,6.69,6.69,0,0,1,4,.64,6.1,6.1,0,0,1,2.35,2.26C250.61,138.73,250.66,139.8,250.39,139.93Z" transform="translate(-71.5 -35.49)"/><path class="cls-16" d="M257.18,146.38c-.07-.17.86-.6,2.18-1.43.62-.41,1.41-1.12,1.1-1.61a3.54,3.54,0,0,0-1-1c-.21-.17-.44-.33-.73-.6a3.57,3.57,0,0,1-.65-.89,7,7,0,0,1-.44-3.73,21.58,21.58,0,0,1,.49-2.86c.4-1.6.76-2.54.92-2.51s.09,1.05-.09,2.65c-.08.8-.19,1.76-.23,2.79a6.68,6.68,0,0,0,.41,3.12,3,3,0,0,0,1.06,1.13,4.2,4.2,0,0,1,1.24,1.49,1.6,1.6,0,0,1,.05,1.12,2.1,2.1,0,0,1-.52.81,4.85,4.85,0,0,1-1.21.83C258.24,146.38,257.23,146.51,257.18,146.38Z" transform="translate(-71.5 -35.49)"/><path class="cls-27" d="M251.18,127.32c-.12.14-.75-.24-1.84-.57a11.87,11.87,0,0,0-4.41-.33c-3.52.33-6.25,1.54-6.39,1.23s2.45-2,6.28-2.41a9.07,9.07,0,0,1,4.83.73C250.8,126.56,251.27,127.22,251.18,127.32Z" transform="translate(-71.5 -35.49)"/><path d="M263.32,137.34a2.64,2.64,0,0,0,2.24,1.74c1.51,0,2.71-2,2.67-4.38a5.44,5.44,0,0,0-1.2-3.51C264.76,132.54,263.8,134.84,263.32,137.34Z" transform="translate(-71.5 -35.49)"/><path class="cls-27" d="M262.63,124.52c-.12-.08.08-.68.83-1.27a5.55,5.55,0,0,1,3.44-1.07,4.78,4.78,0,0,1,3.38,1.36c.65.71.75,1.32.62,1.38s-.51-.32-1.16-.74a5.45,5.45,0,0,0-2.86-.81,7,7,0,0,0-3,.6C263.18,124.28,262.78,124.62,262.63,124.52Z" transform="translate(-71.5 -35.49)"/><path class="cls-30" d="M247.71,150.91c4.13,6.72,15.83,18.06,15.37,2.66C262.16,153.16,247.71,150.91,247.71,150.91Z" transform="translate(-71.5 -35.49)"/><path class="cls-6" d="M247.49,150.42c5.46,1.47,13.35-.07,18-.14-3.48,2.81-4.37,9.25-5.43,9.41C256.68,159.75,251.16,155,247.49,150.42Z" transform="translate(-71.5 -35.49)"/><path class="cls-30" d="M247.84,150.34c3.76.93,14.73-2.56,19.49-.51C264,150.73,251.83,152.68,247.84,150.34Z" transform="translate(-71.5 -35.49)"/><path class="cls-16" d="M249.25,149.83c.11.3-.59.85-1.5,1.37s-1.72.84-1.94.59.35-1.06,1.36-1.63S249.14,149.52,249.25,149.83Z" transform="translate(-71.5 -35.49)"/><path d="M263.31,137.26c-.31,0-.56-.86-.47-2.23a6.69,6.69,0,0,1,.61-2.43,4.48,4.48,0,0,1,2.52-2.42,6.77,6.77,0,0,1,3.18-.21,14.71,14.71,0,0,0,2,.21c.86,0,1.38-.65,1.7-.5.14.06.23.31.11.75a2.27,2.27,0,0,1-1.39,1.38c-1.58.61-3.52.12-4.75.6s-1.85,1.9-2.32,3S263.64,137.3,263.31,137.26Z" transform="translate(-71.5 -35.49)"/><path class="cls-4" d="M273.27,186.57c25.12,7.54,12.59,36.81,19.33,52.25s11.7,44.61,11.75,47.72c-5.58,4.89-12.66,3.59-14.67,1.36-6.19-16.3-12.45-46.3-14.3-56.16C277.63,217.22,273.27,186.57,273.27,186.57Z" transform="translate(-71.5 -35.49)"/><path class="cls-15" d="M255.87,432.14c-.66,3-.51,5.87,2.33,16a4.64,4.64,0,0,0,2.13.39c0-2.5-.59-4.12-.75-7.41,7.72,5.61,8.94,9.51,18.76,9.46,4.12,0,9.34.57-.09-5.93C279,449.58,268.24,446.08,255.87,432.14Z" transform="translate(-71.5 -35.49)"/><path class="cls-15" d="M239,439.75c-10.47,17.54-17.55,20.83-14.58,11.74,0,0-6.83,11.06-3.43,11.28,2.36.17,9.18-4.58,14.11-12.27l-.13,2.94,2-1.72s.83-4.2,1.32-7.39C238.91,442.47,239.27,440.47,239,439.75Z" transform="translate(-71.5 -35.49)"/><path class="cls-5" d="M262.88,181.52c1.53,7.6-.19,15.51-2.29,16.81-5.43-1.27-29.17-14-30.65-13.82-2.7.28-14.69,5.9-14.69,5.9s3.07,20,7.33,23.43,14.33,14.57,13.13,24c0,0,11.59,1.3,17.88.81,14.25-.28,21.29-3,21.29-3,2.67-10.37,10.8-23.22,8.83-35-.89-5.31-6.52-12.83-11.28-15.15C267.85,183.32,265.59,183.22,262.88,181.52Z" transform="translate(-71.5 -35.49)"/><path d="M275,235.16c-.45,7.5,8.32,72.58,1.37,113.57-8.48,9.46-48.89,6.83-53.66-.3-1.08-24.15-11.79-82.13,13-110.57C248.74,239.64,269.69,238.21,275,235.16Z" transform="translate(-71.5 -35.49)"/><path class="cls-31" d="M218.76,280c3.05.73,11-5.47,9.61-8.91C225.66,269.46,217,272,218.76,280Z" transform="translate(-71.5 -35.49)"/><path class="cls-9" d="M225.61,272.28a3.17,3.17,0,0,0,1.82,1.23,2.91,2.91,0,0,0,2.09-.9,14.61,14.61,0,0,0,3.36-4.15,10.29,10.29,0,0,1,2.76-3.64c1.38-1,2.35-.81,3.81-.76,4.38.15,8.37-.1,12.74.16.2,1-1.24,1.71-1.61,1.75a37.06,37.06,0,0,1-7.73.33c-2.39-.23-1.22,1.54-.66,1.77a33.41,33.41,0,0,0,6,2.21,13.36,13.36,0,0,1,5.14,2.51,1,1,0,0,1,0,1.32c-.13.1-1.41,0-1.53.15-.31.32-.41,0-.09.36s.56,2.48-1.56,1.44c-.68-.33-4.92-1.7-5.4-.71s5,3.7,3.7,4.1-4.14-.73-6.65-1.92a8.77,8.77,0,0,0-4.69-1.21c-3.72.47-5.34,4.15-8.95,5.17a6.68,6.68,0,0,1-5.54-1.26c-1.59-1.14-10.22-8.92-10.42-9.75-.35-1.47,2.18-3,3.33-4,.85-.72,5.41-2.68,6.18-1.59C223.23,267,223.93,270.4,225.61,272.28Z" transform="translate(-71.5 -35.49)"/><path class="cls-5" d="M215.25,190.41c-.54,1.28-20.27,50.62-19.58,58.53s16.94,26.44,23.09,31c1.3-7.15,9.61-8.91,9.61-8.91-5.21-7.69-15.46-21.52-16.23-25.89s11.08-26.57,11.86-28.3C231.24,200.77,215.8,189.13,215.25,190.41Z" transform="translate(-71.5 -35.49)"/></g></svg>