<svg xmlns="http://www.w3.org/2000/svg" viewBox="0 0 438 479.88"><defs><style>.cls-1{fill:#f5f5f5;}.cls-2{fill:#263238;}.cls-3{fill:#e8505b;}.cls-4{opacity:0.4;}.cls-5{fill:#455a64;}.cls-6{opacity:0.3;}.cls-7{fill:none;stroke:#263238;stroke-miterlimit:10;stroke-width:0.05px;}.cls-8{fill:#ffbe9d;}.cls-9{fill:#eb996e;}</style></defs><title>Woman</title><g id="Background_Complete" data-name="Background Complete"><polygon class="cls-1" points="218.11 220.44 218.11 220.45 218.13 220.47 218.11 220.44"/><polygon class="cls-1" points="218.23 220.61 218.18 220.66 218.3 220.66 218.23 220.61"/><polygon class="cls-1" points="218.39 220.66 218.39 220.66 218.42 220.66 218.39 220.66"/><polygon class="cls-1" points="218.31 220.66 218.38 220.66 218.33 220.64 218.31 220.66"/><polygon class="cls-1" points="218.08 220.63 218.07 220.56 217.75 220.47 218.04 220.66 218.08 220.63"/><polygon class="cls-1" points="218.09 220.57 218.08 220.62 218.13 220.6 218.09 220.57"/><polygon class="cls-1" points="218.37 220.59 218.35 220.61 218.38 220.62 218.37 220.59"/><polygon class="cls-1" points="218.32 220.63 218.3 220.63 218.31 220.65 218.32 220.63"/><polygon class="cls-1" points="218.13 220.59 218.15 220.58 218.12 220.58 218.13 220.59"/><polygon class="cls-1" points="218.35 220.57 218.31 220.58 218.33 220.6 218.35 220.57"/><path class="cls-1" d="M236,135l13.22,92.68L262.33,135l.21,0L280.06,10.12a220.7,220.7,0,0,0-62.34.31L235.63,135Z" transform="translate(-31 -8.06)"/><path class="cls-1" d="M288.47,142.64l-39,85.79,143.82-167a219,219,0,0,0-52.8-33.85l-52.19,115Z" transform="translate(-31 -8.06)"/><path class="cls-1" d="M158.67,202.15l89.85,26.31h-.35l.87.25h0l0,0h0l.06,0h0l0,0,0-.05.07.05h-.12l.07.05.05,0v0h0l0,0v0l0,0h0l-.05,0,.36.16-.3-.19,90.38,26.46a1.46,1.46,0,0,1-.05.2l119.84,35.22A219.12,219.12,0,0,0,469,228.46H343.63v.16l-94.17.1h0l0,0v-.08l.41-.13-.34.22.84-.24h-.41L460.4,166.11a218.55,218.55,0,0,0-26.06-57.34L249.86,228.46h-.32l.13-.16-.24.16h0v0l0,0,.09-.51-.17.38v.13l-.11.08,0-.08h-.07v-.13L249,228l.06.42,0,0h0l-.19-.12.1.11h-.31L64.83,110.09A218.26,218.26,0,0,0,39.28,167.2l119.39,35Zm90.72,26.56h0Zm-.08,0,0,0,0,0Zm.06-.07v0h0Zm0,0,0,0h0Zm0,.07v0Zm-.19,0v0h0Zm0-.15,0,0h0Zm0,.13,0,0,0,0Zm0,0v.06l0,0-.29-.19Z" transform="translate(-31 -8.06)"/><path class="cls-1" d="M187.35,157.23,249,228.38l-39.12-85.7h0L157.64,28.44a219.4,219.4,0,0,0-52.31,34.22l82,94.58Z" transform="translate(-31 -8.06)"/><path class="cls-1" d="M433.07,347.27,328.66,279.86a.41.41,0,0,0-.05.09l-79-50.86,61.59,71-.15.13L392,393.8A220.31,220.31,0,0,0,433.07,347.27Z" transform="translate(-31 -8.06)"/><polygon class="cls-1" points="218.36 220.87 218.36 220.86 218.35 220.85 218.36 220.87"/><polygon class="cls-1" points="218.14 220.69 218.13 220.71 218.09 220.69 218.1 220.76 218.11 220.75 218.11 220.76 218.17 220.74 218.14 220.72 218.16 220.69 218.18 220.7 218.17 220.68 218.18 220.66 218.09 220.66 218.14 220.69"/><polygon class="cls-1" points="217.69 220.88 218.06 220.77 218.07 220.68 218.05 220.66 217.69 220.88"/><path class="cls-1" d="M248.84,229.12l-78.79,51.12-.18-.29L66.61,346.77a220,220,0,0,0,40.71,46.42l92.07-106.64Z" transform="translate(-31 -8.06)"/><path class="cls-1" d="M158.72,255.47,249,228.72,31,229a218.81,218.81,0,0,0,9.29,61.47l118.41-34.94Z" transform="translate(-31 -8.06)"/><path class="cls-1" d="M159.33,426.46a217.59,217.59,0,0,0,59.34,17.35L249,229.44Z" transform="translate(-31 -8.06)"/><polygon class="cls-1" points="218.38 220.75 218.38 220.71 218.36 220.73 218.38 220.75"/><path class="cls-1" d="M280.09,444a217.49,217.49,0,0,0,59.53-17.06L249.48,229.42Z" transform="translate(-31 -8.06)"/><polygon class="cls-1" points="218.14 221.02 218.24 221.73 218.34 221.05 218.23 220.82 218.14 221.02"/><polygon class="cls-1" points="218.34 220.74 218.33 220.74 218.35 220.75 218.34 220.74"/></g><g id="Floor"><path class="cls-2" d="M469,479.35c0,.15-98.06.26-219,.26s-219-.11-219-.26,98-.26,219-.26S469,479.21,469,479.35Z" transform="translate(-31 -8.06)"/></g><g id="Character"><path class="cls-3" d="M307.32,117.53s31.74,68,7.85,131.34S203.53,403,193.8,407.84c0,0,22.51-35.37-18.59-35.08s-61.74-9.72-66.16-24.13,20-60.95-2.46-72.13-49.76-7.83-68.09-23.34c0,0,42.75-3.56,74.31-6.78C145.94,243,245.5,173.66,253.54,122.65" transform="translate(-31 -8.06)"/><g class="cls-4"><path d="M307.32,117.53s31.74,68,7.85,131.34S203.53,403,193.8,407.84c0,0,22.51-35.37-18.59-35.08s-61.74-9.72-66.16-24.13,20-60.95-2.46-72.13-49.76-7.83-68.09-23.34c0,0,42.75-3.56,74.31-6.78C145.94,243,245.5,173.66,253.54,122.65" transform="translate(-31 -8.06)"/></g><path class="cls-2" d="M191.83,234.62a4.46,4.46,0,0,1-.56.42l-1.67,1.13c-1.44,1-3.57,2.34-6.23,4-5.32,3.26-12.85,7.51-21.44,11.63a241.65,241.65,0,0,1-22.5,9.42c-2.94,1.05-5.33,1.86-7,2.37l-1.92.59a3.2,3.2,0,0,1-.68.17,3.68,3.68,0,0,1,.64-.27l1.89-.68c1.65-.57,4-1.43,6.94-2.53,5.84-2.18,13.82-5.43,22.41-9.54s16.1-8.3,21.47-11.48c2.68-1.58,4.84-2.9,6.31-3.82l1.72-1.05A3.34,3.34,0,0,1,191.83,234.62Z" transform="translate(-31 -8.06)"/><path class="cls-2" d="M218.84,272.32a6.93,6.93,0,0,1-.68.54l-2,1.46c-1.75,1.25-4.25,3.09-7.31,5.4-6.14,4.6-14.47,11.16-23.29,18.86s-16.44,15.08-21.83,20.54c-2.69,2.73-4.85,5-6.33,6.52l-1.71,1.78a6.9,6.9,0,0,1-.63.6,7,7,0,0,1,.55-.67l1.64-1.85c1.44-1.6,3.56-3.87,6.22-6.63,5.32-5.54,12.92-13,21.74-20.68s17.22-14.24,23.42-18.77c3.09-2.27,5.63-4.06,7.41-5.27l2-1.38A4,4,0,0,1,218.84,272.32Z" transform="translate(-31 -8.06)"/><path class="cls-2" d="M215.19,283.46a2,2,0,0,1-.3.38l-.93,1c-.82.87-2,2.1-3.54,3.59-3,3-7.3,7-12.23,11.25s-9.56,7.84-13,10.38c-1.71,1.26-3.11,2.27-4.09,2.94l-1.13.77a1.88,1.88,0,0,1-.42.24s.12-.13.36-.33l1.07-.84,4-3.08c3.35-2.6,7.94-6.26,12.85-10.48s9.24-8.19,12.32-11.11l3.64-3.47,1-.94C215.05,283.55,215.17,283.45,215.19,283.46Z" transform="translate(-31 -8.06)"/><path class="cls-2" d="M209.84,444l-5.12,23.16-9.33,17.14a2.42,2.42,0,0,0,1.12,3.37h0a2.42,2.42,0,0,0,2.22-.1c4.34-2.51,20.27-11.82,20.55-13.53.32-2,7-24.07,7-24.07Z" transform="translate(-31 -8.06)"/><path class="cls-5" d="M220,471.76a4.56,4.56,0,0,1-.88.69l-2.51,1.7-8.31,5.57L200,485.3c-1,.65-1.84,1.21-2.53,1.67a4.57,4.57,0,0,1-1,.55,5.21,5.21,0,0,1,.85-.72c.57-.44,1.4-1.05,2.44-1.81,2.07-1.5,5-3.53,8.22-5.71s6.22-4.09,8.4-5.43c1.09-.68,2-1.22,2.6-1.57A4.87,4.87,0,0,1,220,471.76Z" transform="translate(-31 -8.06)"/><path class="cls-2" d="M312.52,449.54,311.13,468s18.34,7.62,18.42,11.06h-36l1-30.31Z" transform="translate(-31 -8.06)"/><path class="cls-5" d="M328.42,477.87a6.16,6.16,0,0,1-1.38,0l-3.76-.12c-3.17-.1-7.55-.24-12.4-.3s-9.22-.06-12.4,0h-3.76a6.31,6.31,0,0,1-1.38-.06,7.08,7.08,0,0,1,1.38-.14c.88-.06,2.17-.12,3.76-.18,3.17-.11,7.56-.18,12.41-.11s9.24.25,12.41.45c1.58.1,2.86.2,3.75.28A8.92,8.92,0,0,1,328.42,477.87Z" transform="translate(-31 -8.06)"/><polygon class="cls-3" points="200.91 255.25 169.12 451.56 198.31 453.33 243.38 255.25 200.91 255.25"/><polygon class="cls-3" points="243.91 246.7 258.57 453.33 286.05 453.33 286.05 234.54 243.91 246.7"/><path class="cls-2" d="M307.11,448.46c-.15,0-2.36-40.91-4.95-91.39s-4.58-91.42-4.43-91.43,2.36,40.91,4.95,91.4S307.25,448.46,307.11,448.46Z" transform="translate(-31 -8.06)"/><path class="cls-2" d="M317.05,448.46h0s0,0,0,0l0,0-.21.07c-.18,0-.46.1-.81.15-.71.12-1.75.26-3,.42-2.55.31-6.09.68-10,1-7.81.71-14.19,1-14.18.64,0,0,.1,0,.28,0l.83,0,3-.24,10-.87,10-.88C315.5,448.56,317.16,448.44,317.05,448.46Z" transform="translate(-31 -8.06)"/><path class="cls-2" d="M249.22,267.93s0,.16-.05.47-.11.77-.19,1.35c-.18,1.21-.45,2.95-.79,5.18-.69,4.5-1.73,11-3.06,19-2.65,16.06-6.51,38.22-11.19,62.62s-9.32,46.41-12.8,62.32c-1.74,7.95-3.19,14.38-4.21,18.81-.51,2.2-.91,3.92-1.19,5.11l-.32,1.32c-.08.3-.13.45-.13.45s0-.16.08-.46.15-.77.27-1.34c.25-1.19.62-2.91,1.09-5.12,1-4.48,2.34-10.91,4.05-18.85,3.39-15.92,8-37.94,12.65-62.34S242,310,244.77,293.9c1.36-8,2.46-14.49,3.22-19,.38-2.23.68-4,.89-5.17.1-.57.18-1,.24-1.34S249.22,267.93,249.22,267.93Z" transform="translate(-31 -8.06)"/><path class="cls-2" d="M232.26,448.46a5.17,5.17,0,0,1-1.19.05l-3.23-.08L217.18,448l-10.65-.5-3.23-.15a10.48,10.48,0,0,1-1.18-.07,21.22,21.22,0,0,1,4.42-.15c2.73,0,6.5.17,10.66.35s7.93.4,10.65.58c1.37.09,2.47.17,3.23.24A5.86,5.86,0,0,1,232.26,448.46Z" transform="translate(-31 -8.06)"/><g class="cls-6"><polygon points="199.37 264.81 200 260.91 242.62 258.5 241.01 265.61 199.37 264.81"/></g><g class="cls-6"><polygon points="245.12 265.61 243.91 258.46 286.05 256.38 286.03 266.49 245.12 265.61"/></g><polygon class="cls-2" points="203.64 110.12 233.4 103.5 258.4 104.54 280.2 111.46 267.8 173.65 220.34 177.85 203.64 110.12"/><path class="cls-3" d="M259.88,112.59l-31.3,6.93,15.65,83.83s-14,34-15.65,65.61l46.33-2.44s3.19-41.66,2.1-57.7-1.82-44.1-1.82-44.1Z" transform="translate(-31 -8.06)"/><path class="cls-3" d="M170.38,160.69s10.62-10.77,21.7-16.56c8.17-4.27,24.17-9.63,30.53-16.51a41,41,0,0,0,6-8.1L236,159l-31.41,5s4.67,2.55,1.76,4.37l19.68,23-13.49,25.44S168.56,178.92,170.38,160.69Z" transform="translate(-31 -8.06)"/><path class="cls-3" d="M289.4,112.59a70.89,70.89,0,0,1,11.24,2.34c6.66,2.2,17.92,4.59,17.92,4.59l-16,84.93s21.75,26.88,16,59.77c0,0-30.05,2.37-43.65,2.3l-.18-103.34s11.39-14.5,12.85-28.72S289.4,112.59,289.4,112.59Z" transform="translate(-31 -8.06)"/><path class="cls-3" d="M318.56,119.52s17.93,18.57,27.8,25.58,22.29,17.5,22.29,23.08a35.72,35.72,0,0,1-2.11,10.22,20.6,20.6,0,0,1-3,5.75c-4.53,6-16.53,21.66-24.46,29.09l-20-21.07,19-21s-25.5-10.52-26.76-13.38S318.56,119.52,318.56,119.52Z" transform="translate(-31 -8.06)"/><path class="cls-2" d="M274.54,174.38a3.2,3.2,0,0,1-.46-.41l-1.25-1.25L268.24,168l-15.56-16.25-.09-.1,0-.14,2.06-8.64c.31-1.29.61-2.56.91-3.82l.25.32H245.59l.1-.32c2.42-7.33,4.49-13.61,6-18.11.74-2.19,1.33-3.94,1.76-5.2.2-.57.36-1,.49-1.37a2.39,2.39,0,0,1,.19-.47,3,3,0,0,1-.12.49c-.1.36-.24.82-.41,1.4L252,121c-1.45,4.52-3.46,10.82-5.8,18.17l-.23-.32,9.91,0h.33l-.07.32c-.3,1.26-.61,2.53-.91,3.82-.72,3-1.41,5.88-2.07,8.64l-.07-.23,15.43,16.38,4.48,4.83,1.19,1.32A3.11,3.11,0,0,1,274.54,174.38Z" transform="translate(-31 -8.06)"/><path class="cls-2" d="M274.91,266.52c-.14,0-.33-23.31-.42-52.06s-.05-52.07.09-52.08.33,23.31.43,52.08S275.06,266.52,274.91,266.52Z" transform="translate(-31 -8.06)"/><path class="cls-2" d="M294.2,113.35a2.7,2.7,0,0,1,.14.56c.07.42.17,1,.3,1.64.25,1.49.6,3.56,1,6.13l3.38,20.93.05.34-.34,0-5.52-.74.27-.37,1.13,2.3c.76,1.55,1.51,3.08,2.23,4.53l.07.15-.1.12L282.27,167.1l-4.36,5.37-1.2,1.44a2.49,2.49,0,0,1-.44.47,4.38,4.38,0,0,1,.37-.53l1.12-1.49,4.24-5.47,14.43-18.32,0,.28c-.71-1.45-1.46-3-2.23-4.53L293,142l-.22-.44.49.06,5.52.76-.28.29c-1.28-8.37-2.4-15.68-3.2-21-.37-2.58-.67-4.66-.89-6.15q-.13-1-.21-1.65A3.15,3.15,0,0,1,294.2,113.35Z" transform="translate(-31 -8.06)"/><path class="cls-2" d="M270.56,232.74c-1.06-1.29-3.13-2-4.13-.7l0,0a3.21,3.21,0,0,0-1,3.52,3.11,3.11,0,0,0,4.18,1.52A3,3,0,0,0,270.56,232.74Z" transform="translate(-31 -8.06)"/><path class="cls-2" d="M271.12,205.75c-1.06-1.3-3.13-2.05-4.13-.7l0,0a3.23,3.23,0,0,0-1,3.52,3.1,3.1,0,0,0,4.18,1.52A3,3,0,0,0,271.12,205.75Z" transform="translate(-31 -8.06)"/><path class="cls-2" d="M342.54,203.52c-1.06-1.29-3.13-2-4.13-.7l0,0a3.22,3.22,0,0,0-1,3.52,3.1,3.1,0,0,0,4.18,1.52A3,3,0,0,0,342.54,203.52Z" transform="translate(-31 -8.06)"/><path class="cls-2" d="M212.31,206c-1.06-1.3-3.13-2.05-4.13-.7l0,0a3.22,3.22,0,0,0-1,3.52,3.1,3.1,0,0,0,4.18,1.52A3,3,0,0,0,212.31,206Z" transform="translate(-31 -8.06)"/><path class="cls-2" d="M206.6,168.74a26,26,0,0,0-7.91-2.24,26.36,26.36,0,0,0-8.17.84,7.49,7.49,0,0,1,2.29-.88,17.78,17.78,0,0,1,11.68,1A7.38,7.38,0,0,1,206.6,168.74Z" transform="translate(-31 -8.06)"/><path class="cls-2" d="M190.52,164a6.12,6.12,0,0,1,2-.86,17.83,17.83,0,0,1,5.27-.75,18.17,18.17,0,0,1,5.27.83,7,7,0,0,1,2,.89,31.55,31.55,0,0,0-7.29-1.2A30.2,30.2,0,0,0,190.52,164Z" transform="translate(-31 -8.06)"/><path class="cls-2" d="M236.9,164.1a12.36,12.36,0,0,1-.43-1.67l-1-4.58c-.94-3.93-2.2-9.22-3.59-15.07s-2.51-11.26-3.13-15.19c-.32-2-.54-3.55-.65-4.65a10,10,0,0,1-.13-1.72,11.94,11.94,0,0,1,.33,1.69c.17,1.09.45,2.67.81,4.62.71,3.9,1.88,9.25,3.28,15.13s2.65,11.23,3.44,15.12c.4,1.94.7,3.52.87,4.61A10.63,10.63,0,0,1,236.9,164.1Z" transform="translate(-31 -8.06)"/><path class="cls-2" d="M317.45,121.44a10.17,10.17,0,0,1-.22,1.76c-.19,1.21-.45,2.81-.77,4.76-.67,4.09-1.57,9.61-2.56,15.7s-2,11.67-2.72,15.67c-.38,2-.7,3.62-.94,4.74a10.29,10.29,0,0,1-.42,1.72A13.57,13.57,0,0,1,310,164c.2-1.21.46-2.81.77-4.76.67-4.1,1.58-9.61,2.57-15.7s2-11.67,2.72-15.68c.38-2,.7-3.61.93-4.73A13,13,0,0,1,317.45,121.44Z" transform="translate(-31 -8.06)"/><path class="cls-2" d="M351.56,160.86c0,.09-1.11,0-2.87.09a10.24,10.24,0,0,0-6.29,2.23,13.81,13.81,0,0,0-3.52,5.77,24.23,24.23,0,0,1-1,2.7,12.56,12.56,0,0,1,.66-2.82,13.05,13.05,0,0,1,3.53-6.05,8.46,8.46,0,0,1,3.47-1.8,12.68,12.68,0,0,1,3.15-.4,16,16,0,0,1,2.12.12A2,2,0,0,1,351.56,160.86Z" transform="translate(-31 -8.06)"/><path class="cls-2" d="M356.33,165.53c0,.09-1.1,0-2.86.12a26.06,26.06,0,0,0-12.88,4.29c-1.48,1-2.31,1.68-2.37,1.61s.16-.23.52-.57a16.44,16.44,0,0,1,1.64-1.35,22.92,22.92,0,0,1,13.08-4.35,16.53,16.53,0,0,1,2.11.1A2.09,2.09,0,0,1,356.33,165.53Z" transform="translate(-31 -8.06)"/><path class="cls-2" d="M251.72,205.75a19.72,19.72,0,0,1-3.38-1.18,19.35,19.35,0,0,1-3.32-1.32,9.21,9.21,0,0,1,3.5.83A9.5,9.5,0,0,1,251.72,205.75Z" transform="translate(-31 -8.06)"/><path class="cls-2" d="M253,195.7c.08.12-2.26,1.72-4.89,4s-4.57,4.34-4.68,4.23a21.9,21.9,0,0,1,4.34-4.63A21.56,21.56,0,0,1,253,195.7Z" transform="translate(-31 -8.06)"/><path class="cls-2" d="M318.56,264.22c0,.15-20.13,1.32-45,2.63s-45,2.26-45,2.11,20.13-1.32,45-2.63S318.55,264.08,318.56,264.22Z" transform="translate(-31 -8.06)"/><path class="cls-7" d="M231,269" transform="translate(-31 -8.06)"/><g class="cls-6"><path d="M337.12,170.63a9.57,9.57,0,0,1,3.52-10.74,3.32,3.32,0,0,1,2.42-.73,1.51,1.51,0,0,1,1.24,1.89,2.83,2.83,0,0,1-1.22,1.07,8.66,8.66,0,0,0-3.28,4.27,25.42,25.42,0,0,0-1.25,5.32" transform="translate(-31 -8.06)"/></g><g class="cls-6"><path d="M245.93,139.09c.18.54,3.76.95,4.44,2.43a7.44,7.44,0,0,1,0,4.78,14.14,14.14,0,0,0-.73,4.8c.3,2.9,2.68,5.09,4.9,7,6.2,5.29,13.75,11,20,16.3C269,167.8,261.78,161,255.68,155a8.58,8.58,0,0,1-2.26-3,8.39,8.39,0,0,1,.28-4.72q.78-3.07,1.58-6.15c.13-.53.44-1.42.51-1.71a12.74,12.74,0,0,0-2.24-.19,56,56,0,0,0-7.62-.06" transform="translate(-31 -8.06)"/></g><path class="cls-2" d="M211.49,208.41a3.49,3.49,0,0,1,.32-.82c.24-.51.61-1.24,1.09-2.13a56.39,56.39,0,0,1,4.3-6.63,55.7,55.7,0,0,1,5.17-6c.72-.71,1.32-1.27,1.75-1.64s.67-.56.7-.53a29.6,29.6,0,0,1-2.18,2.43c-1.36,1.48-3.18,3.57-5,6s-3.35,4.79-4.39,6.5A27.69,27.69,0,0,1,211.49,208.41Z" transform="translate(-31 -8.06)"/><path class="cls-2" d="M218.9,183.64c.06.07-1.09,1.18-2.81,3.1a61.29,61.29,0,0,0-10.77,16.91c-1,2.37-1.54,3.88-1.62,3.86a5.61,5.61,0,0,1,.27-1.1c.2-.7.54-1.69,1-2.9a52.18,52.18,0,0,1,10.84-17c.9-.94,1.65-1.66,2.2-2.14A5.83,5.83,0,0,1,218.9,183.64Z" transform="translate(-31 -8.06)"/><path class="cls-2" d="M347.79,203.86a4.93,4.93,0,0,1-.8-.82l-2.07-2.3c-1.76-1.93-4.25-4.56-7.07-7.38s-5.46-5.3-7.4-7.05l-2.31-2.07a4.93,4.93,0,0,1-.82-.8,4.42,4.42,0,0,1,.95.64c.59.44,1.42,1.1,2.42,1.95,2,1.69,4.69,4.14,7.52,7s5.29,5.5,7,7.51c.85,1,1.51,1.83,2,2.41A4.73,4.73,0,0,1,347.79,203.86Z" transform="translate(-31 -8.06)"/><path class="cls-8" d="M223.18,196.68l6.55,3.53,14.53,4.12s-3,19.88-4.89,21.58-23.12-16.16-23.12-16.16Z" transform="translate(-31 -8.06)"/><path class="cls-8" d="M322.23,195.49l-4.73,3.68-13.63,6.49s6.3,19.09,8.42,20.45,20.1-19.78,20.1-19.78Z" transform="translate(-31 -8.06)"/><path class="cls-2" d="M255.13,52c-.19,5.12-7,8.22-6.92,13.34,0,2.19,1.4,4.17,1.67,6.35.36,2.93-1.28,5.69-1.89,8.58-1.24,6,2.22,12.24,7.36,15.5s11.58,3.88,17.61,3.06" transform="translate(-31 -8.06)"/><path class="cls-2" d="M296.31,50.78c-.2,2.75,1.61,5.2,3.44,7.26S303.61,62.25,304,65c.7,4.83-4,9.31-3.05,14.1.52,2.56,2.62,4.62,3,7.21s-1,5-2.64,6.86-3.59,1.62-5.06,3.68a20.74,20.74,0,0,1-6.38,5.67c-5.3,2.91-11.66-1.29-14.22-2" transform="translate(-31 -8.06)"/><path class="cls-2" d="M254.1,55c-.07-2.49,2.23-4.42,4.55-5.33s4.9-1.25,7-2.65c1.83-1.23,3.06-3.15,4.61-4.72a15.35,15.35,0,0,1,25.8,7c.89,3.54.28,7.74-2.52,10.09-3.24,2.74-8.05,2.13-12.21,1.28S272.43,59,269,61.44c-2.09,1.48-3.29,3.87-4.57,6.09s-2.89,4.48-5.31,5.31-5.7-.6-5.8-3.16" transform="translate(-31 -8.06)"/><path class="cls-8" d="M263.92,55.49a4.17,4.17,0,0,0-3.72,4.24h0L262.69,116c.1,6.64,9.82,10.38,16.94,10.21h0c7.18-.16,7.42-3.69,7.5-10,.15-10.57.14-14.53.15-14.47s9.07-1.53,10.93-13.38c.92-5.9.6-15.56.09-23.46-.46-7.1-5.19-15.81-12.27-15.05Z" transform="translate(-31 -8.06)"/><path class="cls-2" d="M294.54,71.68a1.51,1.51,0,0,1-1.46,1.53,1.45,1.45,0,0,1-1.57-1.36A1.52,1.52,0,0,1,293,70.31,1.45,1.45,0,0,1,294.54,71.68Z" transform="translate(-31 -8.06)"/><path class="cls-2" d="M296.22,69.94c-.19.19-1.35-.66-3-.65s-2.83.83-3,.63.1-.45.63-.83a4.14,4.14,0,0,1,2.4-.75,4.06,4.06,0,0,1,2.37.76C296.14,69.49,296.31,69.85,296.22,69.94Z" transform="translate(-31 -8.06)"/><path class="cls-2" d="M278.67,71.68a1.51,1.51,0,0,1-1.46,1.53,1.45,1.45,0,0,1-1.57-1.36,1.52,1.52,0,0,1,1.46-1.54A1.45,1.45,0,0,1,278.67,71.68Z" transform="translate(-31 -8.06)"/><path class="cls-2" d="M280.14,70.28c-.19.19-1.34-.65-3-.65s-2.84.83-3,.63.1-.44.62-.83a4.13,4.13,0,0,1,2.41-.74,4,4,0,0,1,2.37.75C280.06,69.83,280.23,70.19,280.14,70.28Z" transform="translate(-31 -8.06)"/><path class="cls-2" d="M286.1,82.39a11.33,11.33,0,0,1,2.66-.49c.42,0,.81-.12.88-.41a2.15,2.15,0,0,0-.28-1.24c-.4-1-.81-2.06-1.24-3.17-1.73-4.53-3-8.24-2.79-8.31s1.73,3.54,3.45,8.06c.41,1.12.81,2.18,1.19,3.2a2.42,2.42,0,0,1,.22,1.64,1,1,0,0,1-.69.61,2.74,2.74,0,0,1-.7.1A11.09,11.09,0,0,1,286.1,82.39Z" transform="translate(-31 -8.06)"/><path class="cls-9" d="M287.28,101.74a30.16,30.16,0,0,1-15.88-4.2c.13,0,4.37,8.24,15.72,7Z" transform="translate(-31 -8.06)"/><path class="cls-3" d="M285.42,86.33a3,3,0,0,0-2.64-1.09,2.74,2.74,0,0,0-1.86,1,1.69,1.69,0,0,0-.12,2,2,2,0,0,0,2.14.54A6.22,6.22,0,0,0,285,87.48a1.79,1.79,0,0,0,.46-.49.53.53,0,0,0,0-.6" transform="translate(-31 -8.06)"/><path class="cls-2" d="M281.29,83.53c.27,0,.28,1.76,1.8,3s3.41,1,3.42,1.3-.42.35-1.21.37a4.39,4.39,0,0,1-2.86-1,3.83,3.83,0,0,1-1.39-2.53C281,84,281.17,83.52,281.29,83.53Z" transform="translate(-31 -8.06)"/><path class="cls-2" d="M280.87,67.41c-.16.45-1.79.24-3.71.47s-3.47.77-3.72.37c-.12-.19.15-.61.78-1a6.43,6.43,0,0,1,5.66-.64C280.59,66.85,280.94,67.2,280.87,67.41Z" transform="translate(-31 -8.06)"/><path class="cls-2" d="M295.6,65.2c-.28.38-1.41,0-2.76,0s-2.51.25-2.77-.13c-.12-.19.06-.57.56-.92a4,4,0,0,1,4.46.13C295.57,64.64,295.73,65,295.6,65.2Z" transform="translate(-31 -8.06)"/><path class="cls-2" d="M258.91,95.13c3.26.66,3.55-1,6-3.26a10.72,10.72,0,0,0,3.28-9c-.37-2.91-1.94-5.87-.93-8.63,1.33-3.64,6.44-4.76,7.79-8.39.79-2.12.08-4.59,1-6.66s2.89-3.06,4.88-3.78,4.13-1.22,5.81-2.52,2.71-3.76,1.63-5.58a112.14,112.14,0,0,0-25.89,6.29c-1.93.72-4,1.59-5.1,3.31s-1.16,4.17-1.05,6.35q.74,16,1.48,31.92" transform="translate(-31 -8.06)"/><path class="cls-2" d="M251.45,71a9.09,9.09,0,0,0-17.21-3.15c-1.64,3.35-1.07,7.42.47,10.82,1.82,4,5.56,7.72,10,7.52,4.17-.19,7.52-3.84,8.72-7.84s.72-8.27.22-12.41" transform="translate(-31 -8.06)"/><path class="cls-5" d="M249.13,87.19a2.33,2.33,0,0,1-.62-.69,5.76,5.76,0,0,1-.88-2.37,11.19,11.19,0,0,1,.11-3.75c.24-1.39.71-2.85,1-4.4a11.09,11.09,0,0,0,.26-4.39c-.24-1.32-.87-2.44-1.14-3.48a4.48,4.48,0,0,1-.07-2.53c.19-.59.44-.83.46-.81s-.15.3-.26.86a4.71,4.71,0,0,0,.22,2.37,31.49,31.49,0,0,1,1.26,3.5,11.08,11.08,0,0,1-.22,4.59c-.35,1.58-.83,3-1.09,4.38a11.82,11.82,0,0,0-.22,3.61A7.81,7.81,0,0,0,249.13,87.19Z" transform="translate(-31 -8.06)"/><path class="cls-5" d="M249,73a5.84,5.84,0,0,1-1.82,1.78,10.42,10.42,0,0,1-11.71.2,5.85,5.85,0,0,1-1.87-1.71c.06-.07.74.63,2.07,1.4a10.85,10.85,0,0,0,11.31-.2C248.24,73.62,248.9,72.89,249,73Z" transform="translate(-31 -8.06)"/><path class="cls-5" d="M248.37,74.81a5.36,5.36,0,0,1-1,1.86,12.92,12.92,0,0,1-8.59,5.17,5.28,5.28,0,0,1-2.11,0,19,19,0,0,1,2.05-.38,14.91,14.91,0,0,0,4.61-1.8,15.07,15.07,0,0,0,3.75-3.22C247.89,75.47,248.3,74.77,248.37,74.81Z" transform="translate(-31 -8.06)"/><path class="cls-5" d="M251.36,91.15s-.05,0-.13-.14a3.78,3.78,0,0,1-.33-.48,6.21,6.21,0,0,1-.78-2.07,7.26,7.26,0,0,1,.19-3.5,6.68,6.68,0,0,1,2.76-3.71c1.4-1,3.23-1.68,4.4-3.26a3.56,3.56,0,0,0,.64-2.78,15.61,15.61,0,0,0-1-3.07,8.83,8.83,0,0,1,.15-7.08,7.71,7.71,0,0,1,2.41-3,9.23,9.23,0,0,1,3.63-1.51c1.28-.29,2.56-.46,3.75-.82A7.35,7.35,0,0,0,270.16,58a5.18,5.18,0,0,0,1.37-3.11,26.22,26.22,0,0,1,.55-3.44,11.83,11.83,0,0,1,3.2-5.61,9.41,9.41,0,0,1,5-2.5,7.35,7.35,0,0,1,7.23,3,6.12,6.12,0,0,1,.92,2,2.89,2.89,0,0,1,.12.76,7.5,7.5,0,0,0-1.21-2.65,7.13,7.13,0,0,0-2.61-2.15,7.25,7.25,0,0,0-4.4-.59,9.07,9.07,0,0,0-4.79,2.44,11.56,11.56,0,0,0-3,5.42A26.72,26.72,0,0,0,272,55a5.76,5.76,0,0,1-1.49,3.4,7.89,7.89,0,0,1-3.36,1.85c-1.24.38-2.53.55-3.78.84a9,9,0,0,0-3.45,1.41,7.25,7.25,0,0,0-2.25,2.79,8.39,8.39,0,0,0-.16,6.69,15.45,15.45,0,0,1,1,3.17,4,4,0,0,1-.74,3.11c-1.3,1.7-3.18,2.36-4.54,3.31a6.39,6.39,0,0,0-2.69,3.49,7.1,7.1,0,0,0-.27,3.37A7.77,7.77,0,0,0,251.36,91.15Z" transform="translate(-31 -8.06)"/><path class="cls-5" d="M252.15,58.07a1.35,1.35,0,0,1-.15-.55,2.55,2.55,0,0,1,.4-1.57,4,4,0,0,1,2-1.64,6.24,6.24,0,0,1,3.4-.11c1.24.24,2.53.73,3.94,1a5.24,5.24,0,0,0,4.29-.67c1.26-1,1.89-2.62,2.53-4.26a17.8,17.8,0,0,1,2.74-4.88,16.4,16.4,0,0,1,9-5.8,9.3,9.3,0,0,1,4.73.12A7.41,7.41,0,0,1,288.45,42a5.46,5.46,0,0,1,1.31,3.14,5.26,5.26,0,0,1-.39,2.54,4,4,0,0,1-.89,1.35,1.57,1.57,0,0,1-.44.36,5.67,5.67,0,0,0,1.14-1.78,5.26,5.26,0,0,0,.29-2.44,5.16,5.16,0,0,0-1.3-2.93,7.12,7.12,0,0,0-3.31-2.07,9.14,9.14,0,0,0-4.51-.07,16.11,16.11,0,0,0-8.66,5.66A17.19,17.19,0,0,0,269,50.45c-.66,1.64-1.31,3.39-2.72,4.46a4.47,4.47,0,0,1-2.34.88,8.05,8.05,0,0,1-2.32-.16c-1.46-.31-2.73-.82-3.93-1.07a6.05,6.05,0,0,0-3.23,0,3.84,3.84,0,0,0-1.91,1.47,2.53,2.53,0,0,0-.46,1.46C252.11,57.88,252.18,58.06,252.15,58.07Z" transform="translate(-31 -8.06)"/></g><g id="Plants"><path class="cls-2" d="M416.89,453.93a2.94,2.94,0,0,1,.17-.41c.13-.29.32-.67.55-1.17a29.83,29.83,0,0,0,1.61-4.67,41.43,41.43,0,0,0-.14-18.06,96,96,0,0,0-3.35-12.12c-1.42-4.31-3.06-8.88-4.41-13.81a53.2,53.2,0,0,1-2.17-15.88c.2-5.61,1.86-11.22,3.69-16.8s3.71-11.05,4.28-16.54a25.19,25.19,0,0,0-3-15.28c-2.42-4.46-5.46-8.28-7.74-12.23a42.37,42.37,0,0,1-4.65-11.75,43.72,43.72,0,0,1-.3-18.2,34,34,0,0,1,1.9-6.43,2.5,2.5,0,0,1-.11.43c-.1.3-.22.71-.39,1.23-.33,1.09-.76,2.7-1.18,4.81a44.4,44.4,0,0,0,.48,18.07,42.24,42.24,0,0,0,4.67,11.6c2.27,3.9,5.33,7.7,7.79,12.21a25.66,25.66,0,0,1,3.13,15.59c-.57,5.59-2.47,11.09-4.29,16.67s-3.47,11.12-3.68,16.64a53.38,53.38,0,0,0,2.13,15.72c1.32,4.91,3,9.48,4.35,13.79a96.24,96.24,0,0,1,3.29,12.2c1.53,7.61,1.1,14,0,18.2a27.41,27.41,0,0,1-1.73,4.66c-.25.49-.45.87-.6,1.15A2.09,2.09,0,0,1,416.89,453.93Z" transform="translate(-31 -8.06)"/><path class="cls-3" d="M409.44,330.86s-4.63-14.8,3.67-23.46a.51.51,0,0,1,.88.26C414.43,310.1,415,317.54,409.44,330.86Z" transform="translate(-31 -8.06)"/><path class="cls-2" d="M412.21,312.33a14.08,14.08,0,0,1-.31,2.73c-.31,1.88-.67,4.09-1.06,6.53l-1,6.52a13.93,13.93,0,0,1-.49,2.7,12.1,12.1,0,0,1,.09-2.75c.15-1.69.45-4,.87-6.57s.86-4.85,1.22-6.5A12.09,12.09,0,0,1,412.21,312.33Z" transform="translate(-31 -8.06)"/><path class="cls-3" d="M414.87,365.76s2.83-15.25,14.22-19a.51.51,0,0,1,.66.63C429,349.74,426,356.58,414.87,365.76Z" transform="translate(-31 -8.06)"/><path class="cls-2" d="M426,350.68a14.56,14.56,0,0,1-1.56,2.26l-4,5.28-4,5.28a15.25,15.25,0,0,1-1.69,2.16,10.84,10.84,0,0,1,1.35-2.39c.93-1.43,2.28-3.34,3.85-5.4s3-3.89,4.12-5.18A11.28,11.28,0,0,1,426,350.68Z" transform="translate(-31 -8.06)"/><path class="cls-3" d="M411.79,404s-1.72-15.4,8.08-22.32a.51.51,0,0,1,.82.41C420.66,384.57,419.78,392,411.79,404Z" transform="translate(-31 -8.06)"/><path class="cls-2" d="M418.05,386.33a14.34,14.34,0,0,1-.83,2.62c-.65,1.79-1.43,3.89-2.28,6.21s-1.61,4.42-2.26,6.21a13.66,13.66,0,0,1-1,2.55,11.88,11.88,0,0,1,.61-2.68c.47-1.63,1.21-3.86,2.11-6.28s1.77-4.6,2.44-6.16A12.78,12.78,0,0,1,418.05,386.33Z" transform="translate(-31 -8.06)"/><path class="cls-3" d="M420.37,442.46s-1.17-15.46,8.88-22a.52.52,0,0,1,.8.45C429.93,423.36,428.79,430.73,420.37,442.46Z" transform="translate(-31 -8.06)"/><path class="cls-2" d="M427.26,425a14.79,14.79,0,0,1-.92,2.59c-.73,1.76-1.57,3.83-2.51,6.12s-1.76,4.36-2.48,6.12a13.38,13.38,0,0,1-1.09,2.52,11.92,11.92,0,0,1,.71-2.66c.53-1.61,1.34-3.81,2.33-6.2s1.93-4.53,2.66-6.06A12,12,0,0,1,427.26,425Z" transform="translate(-31 -8.06)"/><path class="cls-3" d="M402.79,317.86s-13.75-7.18-14-19.17a.52.52,0,0,1,.81-.44C391.62,299.66,397.28,304.52,402.79,317.86Z" transform="translate(-31 -8.06)"/><path class="cls-2" d="M391.63,302.81a14,14,0,0,1,1.71,2.15c1.12,1.54,2.43,3.35,3.87,5.36s2.77,3.8,3.89,5.34a15.49,15.49,0,0,1,1.57,2.25,11.19,11.19,0,0,1-1.89-2c-1.09-1.3-2.53-3.15-4-5.26s-2.82-4-3.74-5.46A12.36,12.36,0,0,1,391.63,302.81Z" transform="translate(-31 -8.06)"/><path class="cls-3" d="M417.54,349.64s-14.15-6.33-15.15-18.29a.51.51,0,0,1,.77-.49C405.29,332.15,411.23,336.66,417.54,349.64Z" transform="translate(-31 -8.06)"/><path class="cls-2" d="M405.49,335.29a13.55,13.55,0,0,1,1.84,2l4.19,5.11,4.21,5.1a15.47,15.47,0,0,1,1.7,2.16,11.2,11.2,0,0,1-2-1.89c-1.17-1.23-2.71-3-4.35-5S408,339,407,337.58A11.94,11.94,0,0,1,405.49,335.29Z" transform="translate(-31 -8.06)"/><path class="cls-3" d="M409.4,385.08s-9.72-12.08-5.16-23.18a.51.51,0,0,1,.91-.08C406.46,363.93,409.69,370.65,409.4,385.08Z" transform="translate(-31 -8.06)"/><path class="cls-2" d="M405.2,366.82a13.28,13.28,0,0,1,.71,2.66c.41,1.86.88,4,1.41,6.46l1.42,6.45a15.64,15.64,0,0,1,.53,2.69,11.62,11.62,0,0,1-.93-2.59c-.48-1.63-1-3.9-1.59-6.43s-1-4.83-1.24-6.51A12.39,12.39,0,0,1,405.2,366.82Z" transform="translate(-31 -8.06)"/><path class="cls-3" d="M419,426.79s-14-6.57-14.84-18.54a.51.51,0,0,1,.78-.47C407.07,409.1,412.93,413.71,419,426.79Z" transform="translate(-31 -8.06)"/><path class="cls-2" d="M407.21,412.24a13.8,13.8,0,0,1,1.81,2.08l4.11,5.18,4.11,5.16a14.87,14.87,0,0,1,1.67,2.19,11.52,11.52,0,0,1-2-1.92c-1.14-1.25-2.66-3-4.26-5.07s-3-3.91-4-5.3A12.4,12.4,0,0,1,407.21,412.24Z" transform="translate(-31 -8.06)"/><path class="cls-2" d="M447,365.84a1.8,1.8,0,0,1,0,.34c0,.27,0,.6,0,1,0,.93-.1,2.19-.17,3.76l-.73,13.42v0c-1,5.61-3.86,11.82-7.69,17.86-2.82,4.45-5.77,8.49-8.31,12.25a84.61,84.61,0,0,0-6.23,10.3,43.63,43.63,0,0,0-2.92,7.56c-.25.92-.43,1.65-.54,2.14a4,4,0,0,1-.2.75,3.64,3.64,0,0,1,.09-.77c.07-.51.22-1.24.43-2.18a39.41,39.41,0,0,1,2.77-7.68,82.28,82.28,0,0,1,6.15-10.42c2.53-3.79,5.47-7.83,8.27-12.26,3.81-6,6.65-12.13,7.69-17.65v0c.39-5.5.71-10.11.94-13.41.13-1.56.23-2.82.31-3.75,0-.39.07-.72.1-1S447,365.84,447,365.84Z" transform="translate(-31 -8.06)"/><path class="cls-3" d="M438.63,401.1s5.95-14.32-1.53-23.7a.51.51,0,0,0-.9.17C435.54,380,434.31,387.33,438.63,401.1Z" transform="translate(-31 -8.06)"/><path class="cls-2" d="M437.55,382.39a12.42,12.42,0,0,1,.47,2.71c.21,1.68.45,4,.63,6.59s.28,4.93.28,6.62a12.14,12.14,0,0,1-.17,2.75,14.46,14.46,0,0,1-.24-2.73c-.13-1.9-.28-4.13-.45-6.6s-.32-4.69-.46-6.59A13.93,13.93,0,0,1,437.55,382.39Z" transform="translate(-31 -8.06)"/><g class="cls-6"><path d="M438.63,401.1s5.95-14.32-1.53-23.7a.51.51,0,0,0-.9.17C435.54,380,434.31,387.33,438.63,401.1Z" transform="translate(-31 -8.06)"/></g><path class="cls-3" d="M420.21,435.6s4.77-14.76-3.45-23.5a.51.51,0,0,0-.88.25C415.41,414.79,414.79,422.22,420.21,435.6Z" transform="translate(-31 -8.06)"/><path class="cls-2" d="M417.62,417a13.42,13.42,0,0,1,.69,2.66c.34,1.66.77,4,1.16,6.52s.67,4.89.81,6.58a11.14,11.14,0,0,1,.05,2.75,15.88,15.88,0,0,1-.46-2.71c-.28-1.88-.61-4.09-1-6.53s-.71-4.65-1-6.54A13.28,13.28,0,0,1,417.62,417Z" transform="translate(-31 -8.06)"/><g class="cls-6"><path d="M420.21,435.6s4.77-14.76-3.45-23.5a.51.51,0,0,0-.88.25C415.41,414.79,414.79,422.22,420.21,435.6Z" transform="translate(-31 -8.06)"/></g><path class="cls-3" d="M446.21,383.6s12.7-8.89,11.42-20.82a.51.51,0,0,0-.85-.33C454.93,364.11,450,369.66,446.21,383.6Z" transform="translate(-31 -8.06)"/><g class="cls-6"><path d="M446.21,383.6s12.7-8.89,11.42-20.82a.51.51,0,0,0-.85-.33C454.93,364.11,450,369.66,446.21,383.6Z" transform="translate(-31 -8.06)"/></g><path class="cls-2" d="M455.33,367.24a12.5,12.5,0,0,1-1.06,2.53c-.72,1.54-1.77,3.63-3,5.91s-2.41,4.3-3.32,5.73a11.38,11.38,0,0,1-1.62,2.23,14.78,14.78,0,0,1,1.26-2.44c.92-1.67,2-3.63,3.17-5.8l3.15-5.81A13.25,13.25,0,0,1,455.33,367.24Z" transform="translate(-31 -8.06)"/><path class="cls-3" d="M425.33,421s15.32-2.39,19.42-13.66a.51.51,0,0,0-.61-.68C441.75,407.31,434.83,410.11,425.33,421Z" transform="translate(-31 -8.06)"/><g class="cls-6"><path d="M425.33,421s15.32-2.39,19.42-13.66a.51.51,0,0,0-.61-.68C441.75,407.31,434.83,410.11,425.33,421Z" transform="translate(-31 -8.06)"/></g><path class="cls-2" d="M440.73,410.3a12.77,12.77,0,0,1-2.07,1.81c-1.32,1.06-3.19,2.47-5.29,4s-4.06,2.79-5.51,3.68a11.81,11.81,0,0,1-2.43,1.29,15.21,15.21,0,0,1,2.2-1.63l5.4-3.82,5.39-3.83A13,13,0,0,1,440.73,410.3Z" transform="translate(-31 -8.06)"/><polygon class="cls-5" points="379.72 441.1 375.25 471.18 403.1 471.18 399.49 441.1 379.72 441.1"/><path class="cls-2" d="M431.6,458.48a109.06,109.06,0,0,1-11.23.29,109.06,109.06,0,0,1-11.23-.29,109.06,109.06,0,0,1,11.23-.29A109.06,109.06,0,0,1,431.6,458.48Z" transform="translate(-31 -8.06)"/><path class="cls-2" d="M432.15,460.87c0,.16-5.19.29-11.59.29S409,461,409,460.87s5.19-.29,11.6-.29S432.15,460.71,432.15,460.87Z" transform="translate(-31 -8.06)"/><path class="cls-3" d="M79.08,424.34a10.63,10.63,0,0,1,7,4.48,18.73,18.73,0,0,1,3,7.93c.91,5.44-.56,11.62-2.58,16.76-5.55-2.61-8.51-9.07-9.8-12.45-2-5.33-2.5-16.22,2.34-16.72" transform="translate(-31 -8.06)"/><path class="cls-3" d="M94.72,461.17a9.05,9.05,0,0,1-.21-9.1,12,12,0,0,1,7.39-5.66,5.06,5.06,0,0,1,4.26.3,3.87,3.87,0,0,1,1.41,3.67,7.9,7.9,0,0,1-1.75,3.69c-2.89,3.74-6.38,6.82-11.1,7.1" transform="translate(-31 -8.06)"/><path class="cls-2" d="M93.32,478.41a3.92,3.92,0,0,1-.18-1.14c-.08-.74-.17-1.82-.25-3.15a39,39,0,0,1,.64-10.4,19.62,19.62,0,0,1,4.72-9.27,13.16,13.16,0,0,1,2.46-2,3.56,3.56,0,0,1,1-.52,25.14,25.14,0,0,0-3.17,2.83,20.48,20.48,0,0,0-4.45,9.11,45,45,0,0,0-.8,10.25A35.64,35.64,0,0,1,93.32,478.41Z" transform="translate(-31 -8.06)"/><path class="cls-2" d="M80.37,432.6a10.7,10.7,0,0,1,.7,1.78c.41,1.16,1,2.84,1.67,4.93,1.36,4.18,3.15,10,5,16.45s3.33,12.35,4.34,16.63c.51,2.14.9,3.87,1.16,5.08a11.72,11.72,0,0,1,.33,1.88,11.84,11.84,0,0,1-.57-1.82c-.34-1.3-.8-3-1.34-5-1.13-4.25-2.7-10.12-4.51-16.57s-3.54-12.28-4.8-16.49l-1.48-5A11.64,11.64,0,0,1,80.37,432.6Z" transform="translate(-31 -8.06)"/><path class="cls-3" d="M87.33,466.35a21.2,21.2,0,0,0-15.16-12.08c-1.68-.32-3.75-.28-4.69,1.16s-.13,3.36.88,4.74a18.11,18.11,0,0,0,19,6.64" transform="translate(-31 -8.06)"/><path class="cls-2" d="M74,459.11a3.16,3.16,0,0,1,1.1.11,9.26,9.26,0,0,1,1.28.27,13,13,0,0,1,1.65.5,21.69,21.69,0,0,1,4.09,1.9A23.66,23.66,0,0,1,90,469.52a23,23,0,0,1,2,4,16.62,16.62,0,0,1,.55,1.64,8.85,8.85,0,0,1,.31,1.27,3.75,3.75,0,0,1,.15,1.1c-.12,0-.42-1.53-1.42-3.84a24.84,24.84,0,0,0-2.1-3.87,27.73,27.73,0,0,0-3.45-4.14,27.41,27.41,0,0,0-4.25-3.31,23.38,23.38,0,0,0-3.94-2C75.56,459.48,74,459.22,74,459.11Z" transform="translate(-31 -8.06)"/></g><g id="Stars"><path class="cls-3" d="M362.8,95.43c0,.3,2.17.54,4.84.54s4.84-.24,4.84-.54-2.16-.53-4.84-.53S362.8,95.14,362.8,95.43Z" transform="translate(-31 -8.06)"/><path class="cls-3" d="M357.66,82.26c-.3,0-.54,2.2-.54,4.91s.24,4.92.54,4.92.53-2.2.53-4.92S358,82.26,357.66,82.26Z" transform="translate(-31 -8.06)"/><path class="cls-3" d="M352.18,95.12c0-.3-2.17-.54-4.84-.54s-4.84.24-4.84.54,2.16.53,4.84.53S352.18,95.41,352.18,95.12Z" transform="translate(-31 -8.06)"/><path class="cls-3" d="M357.32,108.29c.3,0,.54-2.2.54-4.91s-.24-4.92-.54-4.92-.53,2.2-.53,4.92S357,108.29,357.32,108.29Z" transform="translate(-31 -8.06)"/><path class="cls-3" d="M349.5,102.64c.22.19,1.18-.58,2.13-1.72s1.54-2.21,1.31-2.4-1.18.58-2.13,1.71S349.27,102.45,349.5,102.64Z" transform="translate(-31 -8.06)"/><path class="cls-3" d="M350,87.7c-.21.21.42,1.19,1.41,2.18s1.95,1.64,2.16,1.43-.42-1.19-1.4-2.18S350.16,87.49,350,87.7Z" transform="translate(-31 -8.06)"/><path class="cls-3" d="M361.05,91.51c.19.22,1.1-.23,2-1s1.55-1.6,1.36-1.82-1.1.22-2,1S360.86,91.28,361.05,91.51Z" transform="translate(-31 -8.06)"/><path class="cls-3" d="M361.48,98.09c-.21.2.33,1.16,1.23,2.14s1.8,1.62,2,1.42-.33-1.16-1.23-2.14S361.7,97.89,361.48,98.09Z" transform="translate(-31 -8.06)"/><path class="cls-3" d="M123.49,210.92a6.38,6.38,0,0,0,2.75.31,6.38,6.38,0,0,0,2.75-.31,6.48,6.48,0,0,0-2.75-.3A6.48,6.48,0,0,0,123.49,210.92Z" transform="translate(-31 -8.06)"/><path class="cls-3" d="M120.57,203.44a13.12,13.12,0,0,0,0,5.58,12.71,12.71,0,0,0,0-5.58Z" transform="translate(-31 -8.06)"/><path class="cls-3" d="M117.46,210.74a6.48,6.48,0,0,0-2.75-.3,6.48,6.48,0,0,0-2.75.3,6.38,6.38,0,0,0,2.75.31A6.38,6.38,0,0,0,117.46,210.74Z" transform="translate(-31 -8.06)"/><path class="cls-3" d="M120.38,218.22a12.71,12.71,0,0,0,0-5.58,13.12,13.12,0,0,0,0,5.58Z" transform="translate(-31 -8.06)"/><path class="cls-3" d="M115.94,215c.13.11.67-.33,1.21-1s.87-1.26.74-1.37-.67.33-1.21,1S115.81,214.91,115.94,215Z" transform="translate(-31 -8.06)"/><path class="cls-3" d="M116.19,206.53c-.11.12.24.67.8,1.24s1.11.93,1.23.81-.23-.67-.79-1.24S116.31,206.41,116.19,206.53Z" transform="translate(-31 -8.06)"/><path class="cls-3" d="M122.5,208.69c.1.13.62-.12,1.16-.57s.88-.91.77-1-.63.13-1.16.57S122.39,208.56,122.5,208.69Z" transform="translate(-31 -8.06)"/><path class="cls-3" d="M122.74,212.43c-.12.11.19.66.7,1.22s1,.92,1.15.8-.19-.66-.7-1.21S122.87,212.32,122.74,212.43Z" transform="translate(-31 -8.06)"/><path class="cls-3" d="M367.79,270.2a12.75,12.75,0,0,0,5.5,0,12.35,12.35,0,0,0-5.5,0Z" transform="translate(-31 -8.06)"/><path class="cls-3" d="M364.87,262.72a13.12,13.12,0,0,0,0,5.58,12.71,12.71,0,0,0,0-5.58Z" transform="translate(-31 -8.06)"/><path class="cls-3" d="M361.76,270a12.35,12.35,0,0,0-5.5,0,12.75,12.75,0,0,0,5.5,0Z" transform="translate(-31 -8.06)"/><path class="cls-3" d="M364.68,277.5a12.71,12.71,0,0,0,0-5.58,13.12,13.12,0,0,0,0,5.58Z" transform="translate(-31 -8.06)"/><path class="cls-3" d="M360.24,274.29c.13.11.67-.33,1.21-1s.87-1.25.74-1.36-.67.33-1.21,1S360.11,274.18,360.24,274.29Z" transform="translate(-31 -8.06)"/><path class="cls-3" d="M360.5,265.81c-.12.12.23.67.79,1.24s1.12.92,1.23.81-.23-.68-.79-1.24S360.61,265.69,360.5,265.81Z" transform="translate(-31 -8.06)"/><path class="cls-3" d="M366.8,268c.1.13.62-.13,1.16-.57s.88-.91.77-1-.63.13-1.16.57S366.69,267.84,366.8,268Z" transform="translate(-31 -8.06)"/><path class="cls-3" d="M367,271.71c-.12.11.19.65.7,1.21s1,.92,1.15.81-.19-.66-.7-1.22S367.17,271.59,367,271.71Z" transform="translate(-31 -8.06)"/><path class="cls-3" d="M165.55,425.05a12.71,12.71,0,0,0,5.49,0,12.71,12.71,0,0,0-5.49,0Z" transform="translate(-31 -8.06)"/><path class="cls-3" d="M162.63,417.57a12.71,12.71,0,0,0,0,5.58,13.12,13.12,0,0,0,0-5.58Z" transform="translate(-31 -8.06)"/><path class="cls-3" d="M159.52,424.87a12.75,12.75,0,0,0-5.5,0,12.35,12.35,0,0,0,5.5,0Z" transform="translate(-31 -8.06)"/><path class="cls-3" d="M162.44,432.35a13.12,13.12,0,0,0,0-5.58,12.71,12.71,0,0,0,0,5.58Z" transform="translate(-31 -8.06)"/><path class="cls-3" d="M158,429.14c.13.11.67-.33,1.21-1s.88-1.26.75-1.37-.67.33-1.21,1S157.86,429,158,429.14Z" transform="translate(-31 -8.06)"/><path class="cls-3" d="M158.25,420.66c-.12.12.24.67.8,1.24s1.11.93,1.23.81-.24-.67-.8-1.24S158.37,420.54,158.25,420.66Z" transform="translate(-31 -8.06)"/><path class="cls-3" d="M164.55,422.82c.11.13.63-.12,1.16-.57s.88-.91.77-1-.62.13-1.16.57S164.44,422.69,164.55,422.82Z" transform="translate(-31 -8.06)"/><path class="cls-3" d="M164.8,426.56c-.13.11.19.66.69,1.22s1,.91,1.15.8-.19-.66-.7-1.21S164.92,426.45,164.8,426.56Z" transform="translate(-31 -8.06)"/><path class="cls-3" d="M161.55,170.39l-.32.76a5.39,5.39,0,0,1-2.93,2.91l-.83.33.79.32a5.36,5.36,0,0,1,3,3l.23.55.33-.69a5.38,5.38,0,0,1,3-2.72l.71-.26-.93-.46a5.38,5.38,0,0,1-2.62-2.76Z" transform="translate(-31 -8.06)"/><path class="cls-3" d="M126.27,157.16l-.16.38a2.68,2.68,0,0,1-1.46,1.46l-.42.16.4.16a2.7,2.7,0,0,1,1.48,1.49l.11.27.17-.34a2.67,2.67,0,0,1,1.5-1.36l.36-.13-.47-.23a2.71,2.71,0,0,1-1.31-1.38Z" transform="translate(-31 -8.06)"/><path class="cls-3" d="M399.87,102.83l-.16.38a2.68,2.68,0,0,1-1.47,1.45l-.41.17.39.16a2.66,2.66,0,0,1,1.48,1.48l.12.28.16-.35a2.71,2.71,0,0,1,1.5-1.36l.36-.13-.47-.22a2.73,2.73,0,0,1-1.31-1.39Z" transform="translate(-31 -8.06)"/><path class="cls-3" d="M384.82,306.42l-.15.38a2.71,2.71,0,0,1-1.47,1.45l-.41.17.39.16a2.66,2.66,0,0,1,1.48,1.48l.11.28.17-.35a2.67,2.67,0,0,1,1.5-1.36l.36-.13-.47-.23a2.64,2.64,0,0,1-1.31-1.38Z" transform="translate(-31 -8.06)"/><path class="cls-3" d="M174,395.6l-.16.38a2.7,2.7,0,0,1-1.47,1.46l-.41.17.39.16a2.63,2.63,0,0,1,1.48,1.48l.11.28.17-.35a2.67,2.67,0,0,1,1.5-1.36l.36-.13-.47-.23a2.67,2.67,0,0,1-1.31-1.38Z" transform="translate(-31 -8.06)"/><path class="cls-3" d="M332.44,63.38l-.16.38a2.62,2.62,0,0,1-1.47,1.45l-.41.17.4.16A2.7,2.7,0,0,1,332.28,67l.11.27.17-.34a2.65,2.65,0,0,1,1.49-1.36l.36-.14-.47-.22a2.67,2.67,0,0,1-1.3-1.39Z" transform="translate(-31 -8.06)"/><path class="cls-3" d="M356.33,329.45l-.32.76a5.39,5.39,0,0,1-2.93,2.91l-.83.33.79.32a5.36,5.36,0,0,1,3,3l.23.55.33-.69a5.35,5.35,0,0,1,3-2.72l.72-.26-.94-.46a5.4,5.4,0,0,1-2.62-2.77Z" transform="translate(-31 -8.06)"/></g></svg>